solid exported
	facet normal 0 -0.9356396410129432 0.35295674262602084
		outer loop
			vertex 600 1115.4793701171875 86.6029052734375
			vertex -3.556124036734054e-13 1115.475830078125 86.59352111816406
			vertex 600 1115.475830078125 86.59352111816406
		endloop
	endfacet
	facet normal 0 -0.9356396410129432 0.35295674262602084
		outer loop
			vertex 600 1115.4793701171875 86.6029052734375
			vertex -3.552713678800501e-13 1115.4793701171875 86.6029052734375
			vertex -3.556124036734054e-13 1115.475830078125 86.59352111816406
		endloop
	endfacet
	facet normal 0 0.9395252937205946 -0.3424795212260589
		outer loop
			vertex -3.552713678800501e-13 1162.3841552734375 69.28419494628906
			vertex 600 1162.3807373046875 69.27481842041016
			vertex -3.6479724948267067e-13 1162.3807373046875 69.27481842041016
		endloop
	endfacet
	facet normal 0 0.9395252937205946 -0.3424795212260589
		outer loop
			vertex -3.552713678800501e-13 1162.3841552734375 69.28419494628906
			vertex 600 1162.3841552734375 69.28419494628906
			vertex 600 1162.3807373046875 69.27481842041016
		endloop
	endfacet
	facet normal 0 0.34637444221970753 0.9380963414154148
		outer loop
			vertex 600 1162.3841552734375 69.28419494628906
			vertex -3.552713678800501e-13 1162.3841552734375 69.28419494628906
			vertex -3.552713678800501e-13 1115.4793701171875 86.6029052734375
		endloop
	endfacet
	facet normal 0 0.34637444221970753 0.9380963414154148
		outer loop
			vertex 600 1162.3841552734375 69.28419494628906
			vertex -3.552713678800501e-13 1115.4793701171875 86.6029052734375
			vertex 600 1115.4793701171875 86.6029052734375
		endloop
	endfacet
	facet normal 0 -0.9376383672985977 0.34761227275460216
		outer loop
			vertex 600 740.2407836914062 225.1525421142578
			vertex -2.325555926215722e-13 740.2373046875 225.14315795898438
			vertex 600 740.2373046875 225.14315795898438
		endloop
	endfacet
	facet normal 0 -0.9376383672985977 0.34761227275460216
		outer loop
			vertex 600 740.2407836914062 225.1525421142578
			vertex -2.1316282072803006e-13 740.2407836914062 225.1525421142578
			vertex -2.325555926215722e-13 740.2373046875 225.14315795898438
		endloop
	endfacet
	facet normal 0 0.9376383672985977 -0.34761227275460216
		outer loop
			vertex -2.1316282072803006e-13 787.1455688476562 207.83383178710938
			vertex 600 787.14208984375 207.82444763183594
			vertex -2.417404384308375e-13 787.14208984375 207.82444763183594
		endloop
	endfacet
	facet normal 0 0.9376383672985977 -0.34761227275460216
		outer loop
			vertex -2.1316282072803006e-13 787.1455688476562 207.83383178710938
			vertex 600 787.1455688476562 207.83383178710938
			vertex 600 787.14208984375 207.82444763183594
		endloop
	endfacet
	facet normal 0 0.3463744422197076 0.938096341415415
		outer loop
			vertex 600 787.1455688476562 207.83383178710938
			vertex -2.1316282072803006e-13 787.1455688476562 207.83383178710938
			vertex -2.1316282072803006e-13 740.2407836914062 225.1525421142578
		endloop
	endfacet
	facet normal 0 0.3463744422197076 0.938096341415415
		outer loop
			vertex 600 787.1455688476562 207.83383178710938
			vertex -2.1316282072803006e-13 740.2407836914062 225.1525421142578
			vertex 600 740.2407836914062 225.1525421142578
		endloop
	endfacet
	facet normal 0 -0.9396148627985542 0.34223370612500187
		outer loop
			vertex 600 1021.669677734375 121.24031066894531
			vertex -3.2484819413418353e-13 1021.666259765625 121.23092651367188
			vertex 600 1021.666259765625 121.23092651367188
		endloop
	endfacet
	facet normal 0 -0.9396148627985542 0.34223370612500187
		outer loop
			vertex 600 1021.669677734375 121.24031066894531
			vertex -3.552713678800501e-13 1021.669677734375 121.24031066894531
			vertex -3.2484819413418353e-13 1021.666259765625 121.23092651367188
		endloop
	endfacet
	facet normal 0 0.9396148627985542 -0.34223370612500187
		outer loop
			vertex -3.552713678800501e-13 1068.574462890625 103.9216079711914
			vertex 600 1068.571044921875 103.91222381591797
			vertex -3.340330399434488e-13 1068.571044921875 103.91222381591797
		endloop
	endfacet
	facet normal 0 0.9396148627985542 -0.34223370612500187
		outer loop
			vertex -3.552713678800501e-13 1068.574462890625 103.9216079711914
			vertex 600 1068.574462890625 103.9216079711914
			vertex 600 1068.571044921875 103.91222381591797
		endloop
	endfacet
	facet normal 0 0.3463743079384859 0.9380963909962212
		outer loop
			vertex 600 1068.574462890625 103.9216079711914
			vertex -3.552713678800501e-13 1068.574462890625 103.9216079711914
			vertex -3.552713678800501e-13 1021.669677734375 121.24031066894531
		endloop
	endfacet
	facet normal 0 0.3463743079384859 0.9380963909962212
		outer loop
			vertex 600 1068.574462890625 103.9216079711914
			vertex -3.552713678800501e-13 1021.669677734375 121.24031066894531
			vertex 600 1021.669677734375 121.24031066894531
		endloop
	endfacet
	facet normal 0 -0.9395701023763472 0.3423565724803607
		outer loop
			vertex 600 1209.2889404296875 51.965492248535156
			vertex -3.8637658610757297e-13 1209.2855224609375 51.956111907958984
			vertex 600 1209.2855224609375 51.956111907958984
		endloop
	endfacet
	facet normal 0 -0.9395701023763472 0.3423565724803607
		outer loop
			vertex 600 1209.2889404296875 51.965492248535156
			vertex -3.552713678800501e-13 1209.2889404296875 51.965492248535156
			vertex -3.8637658610757297e-13 1209.2855224609375 51.956111907958984
		endloop
	endfacet
	facet normal 0 0.9355922333725455 -0.35308238819427495
		outer loop
			vertex -3.9556143191683824e-13 1256.1903076171875 34.63740921020508
			vertex 600 1256.19384765625 34.64678955078125
			vertex 600 1256.1903076171875 34.63740921020508
		endloop
	endfacet
	facet normal 0 0.9355922333725454 -0.353082388194275
		outer loop
			vertex -4.263256414560601e-13 1256.19384765625 34.64678955078125
			vertex 600 1256.19384765625 34.64678955078125
			vertex -3.9556143191683824e-13 1256.1903076171875 34.63740921020508
		endloop
	endfacet
	facet normal 0 0.34637351464738964 0.9380966839035382
		outer loop
			vertex 600 1256.19384765625 34.64678955078125
			vertex -4.263256414560601e-13 1256.19384765625 34.64678955078125
			vertex -3.552713678800501e-13 1209.2889404296875 51.965492248535156
		endloop
	endfacet
	facet normal 0 0.34637351464738964 0.9380966839035381
		outer loop
			vertex 600 1256.19384765625 34.64678955078125
			vertex -3.552713678800501e-13 1209.2889404296875 51.965492248535156
			vertex 600 1209.2889404296875 51.965492248535156
		endloop
	endfacet
	facet normal 0 -0.9374537457313822 0.3481098599784286
		outer loop
			vertex 600 834.0504150390625 190.51512145996094
			vertex -2.633198021607941e-13 834.0469360351562 190.50575256347656
			vertex 600 834.0469360351562 190.50575256347656
		endloop
	endfacet
	facet normal 0 -0.9374537457313822 0.3481098599784286
		outer loop
			vertex 600 834.0504150390625 190.51512145996094
			vertex -2.8421709430404007e-13 834.0504150390625 190.51512145996094
			vertex -2.633198021607941e-13 834.0469360351562 190.50575256347656
		endloop
	endfacet
	facet normal 0 0.9396148627985543 -0.3422337061250019
		outer loop
			vertex -2.8421709430404007e-13 880.9552001953125 173.19642639160156
			vertex 600 880.9517822265625 173.18704223632812
			vertex -2.7250464797005935e-13 880.9517822265625 173.18704223632812
		endloop
	endfacet
	facet normal 0 0.9396148627985543 -0.3422337061250019
		outer loop
			vertex -2.8421709430404007e-13 880.9552001953125 173.19642639160156
			vertex 600 880.9552001953125 173.19642639160156
			vertex 600 880.9517822265625 173.18704223632812
		endloop
	endfacet
	facet normal 0 0.34637417365724293 0.9380964405770136
		outer loop
			vertex 600 834.0504150390625 190.51512145996094
			vertex -2.8421709430404007e-13 880.9552001953125 173.19642639160156
			vertex -2.8421709430404007e-13 834.0504150390625 190.51512145996094
		endloop
	endfacet
	facet normal 0 0.34637417365724293 0.9380964405770136
		outer loop
			vertex 600 880.9552001953125 173.19642639160156
			vertex -2.8421709430404007e-13 880.9552001953125 173.19642639160156
			vertex 600 834.0504150390625 190.51512145996094
		endloop
	endfacet
	facet normal 0 -0.9376383672985977 0.3476122727546021
		outer loop
			vertex 600 927.8600463867188 155.87771606445312
			vertex -2.9408398459496166e-13 927.8565673828125 155.8683319091797
			vertex 600 927.8565673828125 155.8683319091797
		endloop
	endfacet
	facet normal 0 -0.9376383672985977 0.34761227275460216
		outer loop
			vertex 600 927.8600463867188 155.87771606445312
			vertex -2.8421709430404007e-13 927.8600463867188 155.87771606445312
			vertex -2.9408398459496166e-13 927.8565673828125 155.8683319091797
		endloop
	endfacet
	facet normal 0 0.9376383672985977 -0.3476122727546021
		outer loop
			vertex -2.8421709430404007e-13 974.764892578125 138.55902099609375
			vertex 600 974.7614135742188 138.5496368408203
			vertex -3.0326885750928123e-13 974.7614135742188 138.5496368408203
		endloop
	endfacet
	facet normal 0 0.9376383672985977 -0.34761227275460216
		outer loop
			vertex -2.8421709430404007e-13 974.764892578125 138.55902099609375
			vertex 600 974.764892578125 138.55902099609375
			vertex 600 974.7614135742188 138.5496368408203
		endloop
	endfacet
	facet normal 0 0.3463737770113834 0.9380965870308178
		outer loop
			vertex 600 974.764892578125 138.55902099609375
			vertex -2.8421709430404007e-13 974.764892578125 138.55902099609375
			vertex -2.8421709430404007e-13 927.8600463867188 155.87771606445312
		endloop
	endfacet
	facet normal 0 0.3463737770113834 0.9380965870308178
		outer loop
			vertex 600 974.764892578125 138.55902099609375
			vertex -2.8421709430404007e-13 927.8600463867188 155.87771606445312
			vertex 600 927.8600463867188 155.87771606445312
		endloop
	endfacet
	facet normal 1 0 0
		outer loop
			vertex 600 1350.00341796875 0.009380964562296867
			vertex 600 1350 0.010659884661436081
			vertex 600 1350 0
		endloop
	endfacet
	facet normal -1 -2.931071915233523e-16 1.0679405239985165e-16
		outer loop
			vertex -4.26324503043779e-13 1350 0.010659884661436081
			vertex -4.263256414560601e-13 1350.00341796875 0.009380964562296867
			vertex -4.263256414560601e-13 1350 0
		endloop
	endfacet
	facet normal 0 -0.9395701023763472 0.3423565724803608
		outer loop
			vertex 600 1303.0986328125 17.32808494567871
			vertex -4.263256414560601e-13 1303.09521484375 17.31870460510254
			vertex 600 1303.09521484375 17.31870460510254
		endloop
	endfacet
	facet normal 0 -0.9395701023763472 0.3423565724803608
		outer loop
			vertex 600 1303.0986328125 17.32808494567871
			vertex -4.263256414560601e-13 1303.0986328125 17.32808494567871
			vertex -4.263256414560601e-13 1303.09521484375 17.31870460510254
		endloop
	endfacet
	facet normal 0 0.9395774273252652 -0.3423364690780637
		outer loop
			vertex -4.263256414560601e-13 1350.00341796875 0.009380964562296867
			vertex 600 1350 0
			vertex -4.263256414560601e-13 1350 0
		endloop
	endfacet
	facet normal 0 0.9395774273252652 -0.3423364690780637
		outer loop
			vertex -4.263256414560601e-13 1350.00341796875 0.009380964562296867
			vertex 600 1350.00341796875 0.009380964562296867
			vertex 600 1350 0
		endloop
	endfacet
	facet normal 0 0.35044632548763305 0.9365828169212888
		outer loop
			vertex 600 1350 0.010659884661436081
			vertex -4.263256414560601e-13 1350.00341796875 0.009380964562296867
			vertex -4.26324503043779e-13 1350 0.010659884661436081
		endloop
	endfacet
	facet normal 0 0.3463740330587564 0.9380964924903042
		outer loop
			vertex 600 1350 0.010659884661436081
			vertex -4.26324503043779e-13 1350 0.010659884661436081
			vertex -4.263256414560601e-13 1303.0986328125 17.32808494567871
		endloop
	endfacet
	facet normal 0 0.3463740330587564 0.9380964924903042
		outer loop
			vertex 600 1350 0.010659884661436081
			vertex -4.263256414560601e-13 1303.0986328125 17.32808494567871
			vertex 600 1303.0986328125 17.32808494567871
		endloop
	endfacet
	facet normal 0 0.35044632548763305 0.9365828169212888
		outer loop
			vertex 600 1350.00341796875 0.009380964562296867
			vertex -4.263256414560601e-13 1350.00341796875 0.009380964562296867
			vertex 600 1350 0.010659884661436081
		endloop
	endfacet
	facet normal 0 0.34637354821764116 0.9380966715083908
		outer loop
			vertex -4.263256414560601e-13 1303.09521484375 17.31870460510254
			vertex -3.9556143191683824e-13 1256.1903076171875 34.63740921020508
			vertex 600 1256.1903076171875 34.63740921020508
		endloop
	endfacet
	facet normal 0 0.3463735482176411 0.9380966715083907
		outer loop
			vertex -4.263256414560601e-13 1303.09521484375 17.31870460510254
			vertex 600 1256.1903076171875 34.63740921020508
			vertex 600 1303.09521484375 17.31870460510254
		endloop
	endfacet
	facet normal 0 0.3463744422197076 0.938096341415415
		outer loop
			vertex -2.7250464797005935e-13 880.9517822265625 173.18704223632812
			vertex 600 880.9517822265625 173.18704223632812
			vertex 600 927.8565673828125 155.8683319091797
		endloop
	endfacet
	facet normal 0 0.3463744422197076 0.938096341415415
		outer loop
			vertex -2.9408398459496166e-13 927.8565673828125 155.8683319091797
			vertex -2.7250464797005935e-13 880.9517822265625 173.18704223632812
			vertex 600 927.8565673828125 155.8683319091797
		endloop
	endfacet
	facet normal 0 0.3463737770113834 0.9380965870308178
		outer loop
			vertex -2.417404384308375e-13 787.14208984375 207.82444763183594
			vertex 600 787.14208984375 207.82444763183594
			vertex 600 834.0469360351562 190.50575256347656
		endloop
	endfacet
	facet normal 0 0.3463737770113834 0.9380965870308178
		outer loop
			vertex -2.633198021607941e-13 834.0469360351562 190.50575256347656
			vertex -2.417404384308375e-13 787.14208984375 207.82444763183594
			vertex 600 834.0469360351562 190.50575256347656
		endloop
	endfacet
	facet normal 0 0.3463743750790994 0.9380963662058198
		outer loop
			vertex -3.8637658610757297e-13 1209.2855224609375 51.956111907958984
			vertex -3.6479724948267067e-13 1162.3807373046875 69.27481842041016
			vertex 600 1162.3807373046875 69.27481842041016
		endloop
	endfacet
	facet normal 0 0.3463743750790994 0.9380963662058198
		outer loop
			vertex -3.8637658610757297e-13 1209.2855224609375 51.956111907958984
			vertex 600 1162.3807373046875 69.27481842041016
			vertex 600 1209.2855224609375 51.956111907958984
		endloop
	endfacet
	facet normal 0 0.34637404557362433 0.9380964878694307
		outer loop
			vertex -3.0326885750928123e-13 974.7614135742188 138.5496368408203
			vertex 600 974.7614135742188 138.5496368408203
			vertex 600 1021.666259765625 121.23092651367188
		endloop
	endfacet
	facet normal 0 0.34637404557362433 0.9380964878694307
		outer loop
			vertex -3.2484819413418353e-13 1021.666259765625 121.23092651367188
			vertex -3.0326885750928123e-13 974.7614135742188 138.5496368408203
			vertex 600 1021.666259765625 121.23092651367188
		endloop
	endfacet
	facet normal 0 0.3463738997368684 0.9380965417168288
		outer loop
			vertex -2.1316282072803006e-13 700 240
			vertex 600 700 240
			vertex 600 740.2373046875 225.14315795898438
		endloop
	endfacet
	facet normal 0 0.3463738997368684 0.9380965417168288
		outer loop
			vertex -2.325555926215722e-13 740.2373046875 225.14315795898438
			vertex -2.1316282072803006e-13 700 240
			vertex 600 740.2373046875 225.14315795898438
		endloop
	endfacet
	facet normal 1 -1.1286189719891662e-16 1.0765220636560649e-16
		outer loop
			vertex 2.1316387782514823e-13 -603.0986328125 17.32808494567871
			vertex 2.0453407576555976e-13 -647.9496459960938 50.47029113769531
			vertex 2.064714366275741e-13 -650 30.32423210144043
		endloop
	endfacet
	facet normal 1 -8.152685666659205e-17 2.2073620150875114e-16
		outer loop
			vertex 2.1316387782514823e-13 -603.0986328125 17.32808494567871
			vertex 2.064714366275741e-13 -650 30.32423210144043
			vertex 2.1316273941286712e-13 -650 0.010659884661436081
		endloop
	endfacet
	facet normal 1 -9.881818598011449e-17 1.266574190352689e-16
		outer loop
			vertex 2.026865817111173e-13 -641.8827514648438 69.79022979736328
			vertex 2.0453407576555976e-13 -647.9496459960938 50.47029113769531
			vertex 2.1316387782514823e-13 -603.0986328125 17.32808494567871
		endloop
	endfacet
	facet normal 1 -2.3573923774404056e-17 1.8228385980593504e-16
		outer loop
			vertex 1.996917171551149e-13 -632.0479736328125 87.49179077148438
			vertex 2.026865817111173e-13 -641.8827514648438 69.79022979736328
			vertex 2.1316387782514823e-13 -603.0986328125 17.32808494567871
		endloop
	endfacet
	facet normal 1 3.661770700932639e-17 -9.9111963462356e-17
		outer loop
			vertex 2.1316282072803006e-13 -556.1937866210938 34.64678955078125
			vertex 2.1316387782514823e-13 -603.0986328125 17.32808494567871
			vertex 2.1316282072803006e-13 -603.0951538085938 17.31870460510254
		endloop
	endfacet
	facet normal 1 1.067925618779563e-12 -2.8905197390441692e-12
		outer loop
			vertex 2.1316282072803006e-13 -556.1937866210938 34.64678955078125
			vertex 2.1316282072803006e-13 -603.0951538085938 17.31870460510254
			vertex 1.8239862474133534e-13 -556.1903686523438 34.63740921020508
		endloop
	endfacet
	facet normal 1 -6.1503863557079e-17 1.6663407704234088e-16
		outer loop
			vertex 2.1316282072803006e-13 -556.1937866210938 34.64678955078125
			vertex 1.996917171551149e-13 -632.0479736328125 87.49179077148438
			vertex 2.1316387782514823e-13 -603.0986328125 17.32808494567871
		endloop
	endfacet
	facet normal 1 2.9673482611747177e-18 2.5917663064565176e-16
		outer loop
			vertex 1.9567229509864087e-13 -618.8486938476562 102.8490982055664
			vertex 1.996917171551149e-13 -632.0479736328125 87.49179077148438
			vertex 2.1316282072803006e-13 -556.1937866210938 34.64678955078125
		endloop
	endfacet
	facet normal 1 6.217291834008868e-17 3.135665710121328e-16
		outer loop
			vertex 1.907931413769673e-13 -602.826171875 115.23239135742188
			vertex 1.9567229509864087e-13 -618.8486938476562 102.8490982055664
			vertex 2.1316282072803006e-13 -556.1937866210938 34.64678955078125
		endloop
	endfacet
	facet normal 1 1.1195718209314416e-16 3.423751784415962e-16
		outer loop
			vertex 1.8570912765480257e-13 -584.6373901367188 124.13388061523438
			vertex 1.907931413769673e-13 -602.826171875 115.23239135742188
			vertex 2.1316282072803006e-13 -556.1937866210938 34.64678955078125
		endloop
	endfacet
	facet normal 1 -1.0137835133250002e-16 2.7456616536078336e-16
		outer loop
			vertex 2.1316282072803006e-13 -509.28900146484375 51.965492248535156
			vertex 1.8570912765480257e-13 -584.6373901367188 124.13388061523438
			vertex 2.1316282072803006e-13 -556.1937866210938 34.64678955078125
		endloop
	endfacet
	facet normal 1 1.1537722861358165e-15 4.279139182415066e-16
		outer loop
			vertex 1.5163442875464062e-13 -462.3807067871094 69.27481842041016
			vertex 2.1316282072803006e-13 -509.28900146484375 51.965492248535156
			vertex 2.1316282072803006e-13 -509.2855224609375 51.956111907958984
		endloop
	endfacet
	facet normal 1 9.919885781813353e-16 1.4161107977194762e-15
		outer loop
			vertex 1.4210854715202004e-13 -462.3841552734375 69.28419494628906
			vertex 1.8570912765480257e-13 -584.6373901367188 124.13388061523438
			vertex 2.1316282072803006e-13 -509.28900146484375 51.965492248535156
		endloop
	endfacet
	facet normal 1 -3.289299708448606e-13 8.949552535368653e-13
		outer loop
			vertex 1.4210854715202004e-13 -462.3841552734375 69.28419494628906
			vertex 2.1316282072803006e-13 -509.28900146484375 51.965492248535156
			vertex 1.5163442875464062e-13 -462.3807067871094 69.27481842041016
		endloop
	endfacet
	facet normal 1 1.610039658803065e-16 -4.3605217708000775e-16
		outer loop
			vertex 1.4210854715202004e-13 -415.4793395996094 86.6029052734375
			vertex 1.8570912765480257e-13 -584.6373901367188 124.13388061523438
			vertex 1.4210854715202004e-13 -462.3841552734375 69.28419494628906
		endloop
	endfacet
	facet normal 1 3.9869870128474566e-16 1.465136690900041e-16
		outer loop
			vertex 1.2087021921541874e-13 -368.571044921875 103.91222381591797
			vertex 1.4210854715202004e-13 -415.4793395996094 86.6029052734375
			vertex 1.4210854715202004e-13 -415.47589111328125 86.59352111816406
		endloop
	endfacet
	facet normal 1 1.610039392579033e-16 -4.36052297071396e-16
		outer loop
			vertex 1.4210854715202004e-13 -368.57452392578125 103.9216079711914
			vertex 1.8570912765480257e-13 -584.6373901367188 124.13388061523438
			vertex 1.4210854715202004e-13 -415.4793395996094 86.6029052734375
		endloop
	endfacet
	facet normal 1 7.350321037797959e-13 -1.990711772343592e-12
		outer loop
			vertex 1.4210854715202004e-13 -368.57452392578125 103.9216079711914
			vertex 1.4210854715202004e-13 -415.4793395996094 86.6029052734375
			vertex 1.2087021921541874e-13 -368.571044921875 103.91222381591797
		endloop
	endfacet
	facet normal 1 1.610039392579033e-16 -4.36052297071396e-16
		outer loop
			vertex 1.4210854715202004e-13 -321.6697082519531 121.24031066894531
			vertex 1.8570912765480257e-13 -584.6373901367188 124.13388061523438
			vertex 1.4210854715202004e-13 -368.57452392578125 103.9216079711914
		endloop
	endfacet
	facet normal 1 2.0484215389113313e-16 3.5479653330715013e-15
		outer loop
			vertex 7.105427357601002e-14 -274.7648620605469 138.55902099609375
			vertex 1.8570912765480257e-13 -584.6373901367188 124.13388061523438
			vertex 1.4210854715202004e-13 -321.6697082519531 121.24031066894531
		endloop
	endfacet
	facet normal 1 1.3324648033732772e-15 4.939869514944832e-16
		outer loop
			vertex 7.105427357601002e-14 -274.7648620605469 138.55902099609375
			vertex 1.4210854715202004e-13 -321.6697082519531 121.24031066894531
			vertex 1.4210854715202004e-13 -321.6662292480469 121.23092651367188
		endloop
	endfacet
	facet normal 1 -6.59078516152333e-13 1.7880060497395731e-12
		outer loop
			vertex 7.105427357601002e-14 -274.7648620605469 138.55902099609375
			vertex 1.4210854715202004e-13 -321.6662292480469 121.23092651367188
			vertex 9.010602322872402e-14 -274.76141357421875 138.5496368408203
		endloop
	endfacet
	facet normal 1 0 0
		outer loop
			vertex 7.105427357601002e-14 -180.95523071289062 173.19642639160156
			vertex 7.105427357601002e-14 -227.86004638671875 155.87771606445312
			vertex 7.105427357601002e-14 -227.85658264160156 155.8683319091797
		endloop
	endfacet
	facet normal 1 4.0578728365656277e-13 -1.0983303569979197e-12
		outer loop
			vertex 7.105427357601002e-14 -180.95523071289062 173.19642639160156
			vertex 7.105427357601002e-14 -227.85658264160156 155.8683319091797
			vertex 5.93418272420293e-14 -180.95176696777344 173.18704223632812
		endloop
	endfacet
	facet normal 1 1.3329090342600396e-15 4.927855875847377e-16
		outer loop
			vertex 0 -87.14557647705078 207.83383178710938
			vertex 7.105427357601002e-14 -134.05039978027344 190.51512145996094
			vertex 7.105427357601002e-14 -134.04693603515625 190.50575256347656
		endloop
	endfacet
	facet normal 1 -9.887612145584998e-13 2.6803489824393864e-12
		outer loop
			vertex 0 -87.14557647705078 207.83383178710938
			vertex 7.105427357601002e-14 -134.04693603515625 190.50575256347656
			vertex 2.857762786720279e-14 -87.1421127319336 207.82444763183594
		endloop
	endfacet
	facet normal 1 -2.37604820913936e-29 6.439754152716927e-29
		outer loop
			vertex 0 0 240
			vertex 0 -40.24075698852539 225.1525421142578
			vertex 6.866167827446815e-31 -40.2372932434082 225.14315795898438
		endloop
	endfacet
	facet normal 1 3.7756005267936346e-16 -1.62260739496179e-16
		outer loop
			vertex 0 0 340
			vertex 1.8570912765480257e-13 -584.6373901367188 124.13388061523438
			vertex 7.105427357601002e-14 -274.7648620605469 138.55902099609375
		endloop
	endfacet
	facet normal 1 -2.623824564617308e-16 7.106187772591547e-16
		outer loop
			vertex 0 0 340
			vertex 7.105427357601002e-14 -227.86004638671875 155.87771606445312
			vertex 7.105427357601002e-14 -180.95523071289062 173.19642639160156
		endloop
	endfacet
	facet normal 1 2.002347030638022e-15 -1.320274989065183e-15
		outer loop
			vertex 0 0 340
			vertex 7.105427357601002e-14 -134.05039978027344 190.51512145996094
			vertex 0 -87.14557647705078 207.83383178710938
		endloop
	endfacet
	facet normal 1 -2.6238203077332524e-16 7.106182504495923e-16
		outer loop
			vertex 0 0 340
			vertex 7.105427357601002e-14 -274.7648620605469 138.55902099609375
			vertex 7.105427357601002e-14 -227.86004638671875 155.87771606445312
		endloop
	endfacet
	facet normal 1 0 0
		outer loop
			vertex 0 0 340
			vertex 0 -40.24075698852539 225.1525421142578
			vertex 0 0 240
		endloop
	endfacet
	facet normal 1 -2.6238192842107555e-16 7.106182044193975e-16
		outer loop
			vertex 0 0 340
			vertex 7.105427357601002e-14 -180.95523071289062 173.19642639160156
			vertex 7.105427357601002e-14 -134.05039978027344 190.51512145996094
		endloop
	endfacet
	facet normal 1 0 0
		outer loop
			vertex 0 0 340
			vertex 0 -87.14557647705078 207.83383178710938
			vertex 0 -40.24075698852539 225.1525421142578
		endloop
	endfacet
	facet normal 1 -6.707353688759067e-13 -1.8178813572544264e-12
		outer loop
			vertex -2.1316282072803006e-13 740.2407836914062 225.1525421142578
			vertex -2.1316282072803006e-13 700 240
			vertex -2.325555926215722e-13 740.2373046875 225.14315795898438
		endloop
	endfacet
	facet normal 1 -9.877031429885996e-13 -2.6791324181622548e-12
		outer loop
			vertex -2.8421709430404007e-13 834.0504150390625 190.51512145996094
			vertex -2.1316282072803006e-13 787.1455688476562 207.83383178710938
			vertex -2.417404384308375e-13 787.14208984375 207.82444763183594
		endloop
	endfacet
	facet normal 1 7.246690490779408e-13 1.961401294315958e-12
		outer loop
			vertex -2.8421709430404007e-13 834.0504150390625 190.51512145996094
			vertex -2.417404384308375e-13 787.14208984375 207.82444763183594
			vertex -2.633198021607941e-13 834.0469360351562 190.50575256347656
		endloop
	endfacet
	facet normal 1 2.0023456827105398e-15 1.3202739847037452e-15
		outer loop
			vertex -2.1316282072803006e-13 700 340
			vertex -2.1316282072803006e-13 787.1455688476562 207.83383178710938
			vertex -2.8421709430404007e-13 834.0504150390625 190.51512145996094
		endloop
	endfacet
	facet normal 1 3.0451831532575723e-16 0
		outer loop
			vertex -2.1316282072803006e-13 700 340
			vertex 0 0 340
			vertex 0 0 240
		endloop
	endfacet
	facet normal 1 0 0
		outer loop
			vertex -2.1316282072803006e-13 700 340
			vertex -2.1316282072803006e-13 700 240
			vertex -2.1316282072803006e-13 740.2407836914062 225.1525421142578
		endloop
	endfacet
	facet normal 1 3.0451831532575723e-16 0
		outer loop
			vertex -2.1316282072803006e-13 700 340
			vertex 0 0 240
			vertex -2.1316282072803006e-13 700 240
		endloop
	endfacet
	facet normal 1 0 0
		outer loop
			vertex -2.1316282072803006e-13 700 340
			vertex -2.1316282072803006e-13 740.2407836914062 225.1525421142578
			vertex -2.1316282072803006e-13 787.1455688476562 207.83383178710938
		endloop
	endfacet
	facet normal 1 -2.6238232603154885e-16 -7.106185877590371e-16
		outer loop
			vertex -2.8421709430404007e-13 880.9552001953125 173.19642639160156
			vertex -2.1316282072803006e-13 700 340
			vertex -2.8421709430404007e-13 834.0504150390625 190.51512145996094
		endloop
	endfacet
	facet normal 1 4.0621117968066745e-13 1.100155412512668e-12
		outer loop
			vertex -2.8421709430404007e-13 927.8600463867188 155.87771606445312
			vertex -2.8421709430404007e-13 880.9552001953125 173.19642639160156
			vertex -2.7250464797005935e-13 880.9517822265625 173.18704223632812
		endloop
	endfacet
	facet normal 1 -3.410764507822374e-13 -9.249936444349376e-13
		outer loop
			vertex -2.8421709430404007e-13 927.8600463867188 155.87771606445312
			vertex -2.7250464797005935e-13 880.9517822265625 173.18704223632812
			vertex -2.9408398459496166e-13 927.8565673828125 155.8683319091797
		endloop
	endfacet
	facet normal 1 -2.623821421071933e-16 -7.106183882305267e-16
		outer loop
			vertex -2.8421709430404007e-13 927.8600463867188 155.87771606445312
			vertex -2.1316282072803006e-13 700 340
			vertex -2.8421709430404007e-13 880.9552001953125 173.19642639160156
		endloop
	endfacet
	facet normal 1 -2.623817164195308e-16 -7.106178614218838e-16
		outer loop
			vertex -2.8421709430404007e-13 974.764892578125 138.55902099609375
			vertex -2.1316282072803006e-13 700 340
			vertex -2.8421709430404007e-13 927.8600463867188 155.87771606445312
		endloop
	endfacet
	facet normal 1 -6.580259856017246e-13 -1.786254355612181e-12
		outer loop
			vertex -3.552713678800501e-13 1021.669677734375 121.24031066894531
			vertex -2.8421709430404007e-13 974.764892578125 138.55902099609375
			vertex -3.0326885750928123e-13 974.7614135742188 138.5496368408203
		endloop
	endfacet
	facet normal 1 1.055542342035012e-12 2.857514845517509e-12
		outer loop
			vertex -3.552713678800501e-13 1021.669677734375 121.24031066894531
			vertex -3.0326885750928123e-13 974.7614135742188 138.5496368408203
			vertex -3.2484819413418353e-13 1021.666259765625 121.23092651367188
		endloop
	endfacet
	facet normal 1 7.369939886106871e-13 1.994777896267169e-12
		outer loop
			vertex -3.556124036734054e-13 1115.475830078125 86.59352111816406
			vertex -3.552713678800501e-13 1068.574462890625 103.9216079711914
			vertex -3.340330399434488e-13 1068.571044921875 103.91222381591797
		endloop
	endfacet
	facet normal 1 -1.1777925138254995e-14 -3.1898606701233813e-14
		outer loop
			vertex -3.552713678800501e-13 1115.4793701171875 86.6029052734375
			vertex -3.552713678800501e-13 1068.574462890625 103.9216079711914
			vertex -3.556124036734054e-13 1115.475830078125 86.59352111816406
		endloop
	endfacet
	facet normal 1 -3.3061389932157136e-13 -8.954119825245083e-13
		outer loop
			vertex -3.552713678800501e-13 1209.2889404296875 51.965492248535156
			vertex -3.552713678800501e-13 1162.3841552734375 69.28419494628906
			vertex -3.6479724948267067e-13 1162.3807373046875 69.27481842041016
		endloop
	endfacet
	facet normal 1 -1.0787736917643157e-12 -2.9229219598271377e-12
		outer loop
			vertex -3.552713678800501e-13 1209.2889404296875 51.965492248535156
			vertex -3.6479724948267067e-13 1162.3807373046875 69.27481842041016
			vertex -3.8637658610757297e-13 1209.2855224609375 51.956111907958984
		endloop
	endfacet
	facet normal 1 1.062846650025536e-12 2.8785405669890533e-12
		outer loop
			vertex -4.263256414560601e-13 1303.0986328125 17.32808494567871
			vertex -4.263256414560601e-13 1256.19384765625 34.64678955078125
			vertex -3.9556143191683824e-13 1256.1903076171875 34.63740921020508
		endloop
	endfacet
	facet normal 1 5.781070141054157e-16 -2.1064818407419783e-16
		outer loop
			vertex -4.263256414560601e-13 1303.0986328125 17.32808494567871
			vertex -3.9556143191683824e-13 1256.1903076171875 34.63740921020508
			vertex -4.263256414560601e-13 1303.09521484375 17.31870460510254
		endloop
	endfacet
	facet normal 1 3.0436334313451496e-17 8.249749017097126e-17
		outer loop
			vertex -4.2882529666977975e-13 1350 30.32423210144043
			vertex -4.263256414560601e-13 1303.0986328125 17.32808494567871
			vertex -4.26324503043779e-13 1350 0.010659884661436081
		endloop
	endfacet
	facet normal 1 5.389259317246295e-15 -1.925678217502733e-14
		outer loop
			vertex -2.982746563845798e-14 1347.94970703125 50.47029113769531
			vertex -4.263256414560601e-13 1303.0986328125 17.32808494567871
			vertex -4.2882529666977975e-13 1350 30.32423210144043
		endloop
	endfacet
	facet normal 1 1.9494376395089066e-16 5.279720714153654e-16
		outer loop
			vertex -4.080629876970082e-13 1284.637451171875 124.13388061523438
			vertex -3.552713678800501e-13 1115.4793701171875 86.6029052734375
			vertex -3.552713678800501e-13 1162.3841552734375 69.28419494628906
		endloop
	endfacet
	facet normal 1 1.28830866522342e-15 -6.135722369035805e-16
		outer loop
			vertex -4.080629876970082e-13 1284.637451171875 124.13388061523438
			vertex -3.552713678800501e-13 1209.2889404296875 51.965492248535156
			vertex -4.263256414560601e-13 1256.19384765625 34.64678955078125
		endloop
	endfacet
	facet normal 1 2.38781848769326e-16 -3.4560461564188386e-15
		outer loop
			vertex -4.080629876970082e-13 1284.637451171875 124.13388061523438
			vertex -2.8421709430404007e-13 974.764892578125 138.55902099609375
			vertex -3.552713678800501e-13 1021.669677734375 121.24031066894531
		endloop
	endfacet
	facet normal 1 1.9494364384186214e-16 5.27971978707443e-16
		outer loop
			vertex -4.080629876970082e-13 1284.637451171875 124.13388061523438
			vertex -3.552713678800501e-13 1021.669677734375 121.24031066894531
			vertex -3.552713678800501e-13 1068.574462890625 103.9216079711914
		endloop
	endfacet
	facet normal 1 4.092317715221127e-16 2.0546092642359764e-16
		outer loop
			vertex -4.080629876970082e-13 1284.637451171875 124.13388061523438
			vertex -2.1316282072803006e-13 700 340
			vertex -2.8421709430404007e-13 974.764892578125 138.55902099609375
		endloop
	endfacet
	facet normal 1 1.9494354128545683e-16 5.279730750039254e-16
		outer loop
			vertex -4.080629876970082e-13 1284.637451171875 124.13388061523438
			vertex -3.552713678800501e-13 1068.574462890625 103.9216079711914
			vertex -3.552713678800501e-13 1115.4793701171875 86.6029052734375
		endloop
	endfacet
	facet normal 1 1.9494371684187128e-16 5.279721764156551e-16
		outer loop
			vertex -4.080629876970082e-13 1284.637451171875 124.13388061523438
			vertex -3.552713678800501e-13 1162.3841552734375 69.28419494628906
			vertex -3.552713678800501e-13 1209.2889404296875 51.965492248535156
		endloop
	endfacet
	facet normal 1 -7.117957013509308e-15 -2.3308694982844055e-15
		outer loop
			vertex -2.7979973278081417e-14 1341.8826904296875 69.79022979736328
			vertex -4.263256414560601e-13 1303.0986328125 17.32808494567871
			vertex -2.982746563845798e-14 1347.94970703125 50.47029113769531
		endloop
	endfacet
	facet normal 1 -1.873592768723892e-14 5.751160740083869e-15
		outer loop
			vertex -1.6086536332063188e-14 1302.826171875 115.23239135742188
			vertex -4.080629876970082e-13 1284.637451171875 124.13388061523438
			vertex -4.263256414560601e-13 1256.19384765625 34.64678955078125
		endloop
	endfacet
	facet normal 1 -5.7332957104938745e-15 -3.3545177671125927e-15
		outer loop
			vertex -2.498511211021081e-14 1332.0479736328125 87.49179077148438
			vertex -4.263256414560601e-13 1303.0986328125 17.32808494567871
			vertex -2.7979973278081417e-14 1341.8826904296875 69.79022979736328
		endloop
	endfacet
	facet normal 1 -1.8328069933082125e-15 -4.9638480598985445e-15
		outer loop
			vertex -2.498511211021081e-14 1332.0479736328125 87.49179077148438
			vertex -4.263256414560601e-13 1256.19384765625 34.64678955078125
			vertex -4.263256414560601e-13 1303.0986328125 17.32808494567871
		endloop
	endfacet
	facet normal 1 -2.508184158174725e-15 -3.639318211749004e-15
		outer loop
			vertex -2.0965691747802662e-14 1318.8487548828125 102.8490982055664
			vertex -1.6086536332063188e-14 1302.826171875 115.23239135742188
			vertex -4.263256414560601e-13 1256.19384765625 34.64678955078125
		endloop
	endfacet
	facet normal 1 -3.195347179284149e-15 -3.0080472740589108e-15
		outer loop
			vertex -2.0965691747802662e-14 1318.8487548828125 102.8490982055664
			vertex -4.263256414560601e-13 1256.19384765625 34.64678955078125
			vertex -2.498511211021081e-14 1332.0479736328125 87.49179077148438
		endloop
	endfacet
	facet normal 0 -0.938629427107469 -0.34492723662811053
		outer loop
			vertex 600 -274.7648620605469 138.55902099609375
			vertex 9.010602322872402e-14 -274.76141357421875 138.5496368408203
			vertex 600 -274.76141357421875 138.5496368408203
		endloop
	endfacet
	facet normal 0 -0.938629427107469 -0.34492723662811053
		outer loop
			vertex 600 -274.7648620605469 138.55902099609375
			vertex 7.105427357601002e-14 -274.7648620605469 138.55902099609375
			vertex 9.010602322872402e-14 -274.76141357421875 138.5496368408203
		endloop
	endfacet
	facet normal 0 0.9381345960654524 0.34627081838513446
		outer loop
			vertex 7.105427357601002e-14 -227.86004638671875 155.87771606445312
			vertex 600 -227.85658264160156 155.8683319091797
			vertex 7.105427357601002e-14 -227.85658264160156 155.8683319091797
		endloop
	endfacet
	facet normal 0 0.9381345960654524 0.34627081838513446
		outer loop
			vertex 7.105427357601002e-14 -227.86004638671875 155.87771606445312
			vertex 600 -227.86004638671875 155.87771606445312
			vertex 600 -227.85658264160156 155.8683319091797
		endloop
	endfacet
	facet normal 0 -0.34637397533420733 0.9380965138039786
		outer loop
			vertex 600 -227.86004638671875 155.87771606445312
			vertex 7.105427357601002e-14 -227.86004638671875 155.87771606445312
			vertex 7.105427357601002e-14 -274.7648620605469 138.55902099609375
		endloop
	endfacet
	facet normal 0 -0.34637397533420733 0.9380965138039786
		outer loop
			vertex 600 -227.86004638671875 155.87771606445312
			vertex 7.105427357601002e-14 -274.7648620605469 138.55902099609375
			vertex 600 -274.7648620605469 138.55902099609375
		endloop
	endfacet
	facet normal -1 -3.244194377236324e-16 -7.628146599932442e-18
		outer loop
			vertex 2.1316387782514823e-13 -650.0034790039062 0.009380964562296867
			vertex 2.1316273941286712e-13 -650 0.010659884661436081
			vertex 2.1316282072803006e-13 -650 -7.96020421887228e-14
		endloop
	endfacet
	facet normal 1 0 0
		outer loop
			vertex 600 -650 0.010659884661436081
			vertex 600 -650.0034790039062 0.009380964562296867
			vertex 600 -650 -7.96020421887228e-14
		endloop
	endfacet
	facet normal 0 0.937592286146866 0.34773654532978515
		outer loop
			vertex 2.1316387782514823e-13 -603.0986328125 17.32808494567871
			vertex 600 -603.0951538085938 17.31870460510254
			vertex 2.1316282072803006e-13 -603.0951538085938 17.31870460510254
		endloop
	endfacet
	facet normal 0 0.937592286146866 0.34773654532978515
		outer loop
			vertex 2.1316387782514823e-13 -603.0986328125 17.32808494567871
			vertex 600 -603.0986328125 17.32808494567871
			vertex 600 -603.0951538085938 17.31870460510254
		endloop
	endfacet
	facet normal 0 -0.9375998272170774 -0.34771621187759827
		outer loop
			vertex 600 -650.0034790039062 0.009380964562296867
			vertex 2.1316282072803006e-13 -650 -7.96020421887228e-14
			vertex 600 -650 -7.96020421887228e-14
		endloop
	endfacet
	facet normal 0 -0.9375998272170774 -0.34771621187759827
		outer loop
			vertex 600 -650.0034790039062 0.009380964562296867
			vertex 2.1316387782514823e-13 -650.0034790039062 0.009380964562296867
			vertex 2.1316282072803006e-13 -650 -7.96020421887228e-14
		endloop
	endfacet
	facet normal 0 -0.34637403305875647 0.9380964924903044
		outer loop
			vertex 600 -650 0.010659884661436081
			vertex 2.1316387782514823e-13 -603.0986328125 17.32808494567871
			vertex 2.1316273941286712e-13 -650 0.010659884661436081
		endloop
	endfacet
	facet normal 0 -0.3450358285017779 0.9385895146708659
		outer loop
			vertex 600 -650 0.010659884661436081
			vertex 2.1316273941286712e-13 -650 0.010659884661436081
			vertex 2.1316387782514823e-13 -650.0034790039062 0.009380964562296867
		endloop
	endfacet
	facet normal 0 -0.3450358285017779 0.9385895146708659
		outer loop
			vertex 600 -650 0.010659884661436081
			vertex 2.1316387782514823e-13 -650.0034790039062 0.009380964562296867
			vertex 600 -650.0034790039062 0.009380964562296867
		endloop
	endfacet
	facet normal 0 -0.34637403305875647 0.9380964924903044
		outer loop
			vertex 600 -603.0986328125 17.32808494567871
			vertex 2.1316387782514823e-13 -603.0986328125 17.32808494567871
			vertex 600 -650 0.010659884661436081
		endloop
	endfacet
	facet normal 0 -0.9376383672985977 -0.3476122727546021
		outer loop
			vertex 600 -368.57452392578125 103.9216079711914
			vertex 1.2087021921541874e-13 -368.571044921875 103.91222381591797
			vertex 600 -368.571044921875 103.91222381591797
		endloop
	endfacet
	facet normal 0 -0.9376383672985977 -0.3476122727546021
		outer loop
			vertex 600 -368.57452392578125 103.9216079711914
			vertex 1.4210854715202004e-13 -368.57452392578125 103.9216079711914
			vertex 1.2087021921541874e-13 -368.571044921875 103.91222381591797
		endloop
	endfacet
	facet normal 0 0.9376383672985977 0.3476122727546021
		outer loop
			vertex 1.4210854715202004e-13 -321.6697082519531 121.24031066894531
			vertex 600 -321.6662292480469 121.23092651367188
			vertex 1.4210854715202004e-13 -321.6662292480469 121.23092651367188
		endloop
	endfacet
	facet normal 0 0.9376383672985977 0.3476122727546021
		outer loop
			vertex 1.4210854715202004e-13 -321.6697082519531 121.24031066894531
			vertex 600 -321.6697082519531 121.24031066894531
			vertex 600 -321.6662292480469 121.23092651367188
		endloop
	endfacet
	facet normal 0 -0.3463741096153944 0.9380964642232392
		outer loop
			vertex 600 -321.6697082519531 121.24031066894531
			vertex 1.4210854715202004e-13 -321.6697082519531 121.24031066894531
			vertex 1.4210854715202004e-13 -368.57452392578125 103.9216079711914
		endloop
	endfacet
	facet normal 0 -0.3463741096153944 0.9380964642232392
		outer loop
			vertex 600 -321.6697082519531 121.24031066894531
			vertex 1.4210854715202004e-13 -368.57452392578125 103.9216079711914
			vertex 600 -368.57452392578125 103.9216079711914
		endloop
	endfacet
	facet normal 0 -0.9381345960654524 -0.34627081838513446
		outer loop
			vertex 600 -180.95523071289062 173.19642639160156
			vertex 5.93418272420293e-14 -180.95176696777344 173.18704223632812
			vertex 600 -180.95176696777344 173.18704223632812
		endloop
	endfacet
	facet normal 0 -0.9381345960654524 -0.34627081838513446
		outer loop
			vertex 600 -180.95523071289062 173.19642639160156
			vertex 7.105427357601002e-14 -180.95523071289062 173.19642639160156
			vertex 5.93418272420293e-14 -180.95176696777344 173.18704223632812
		endloop
	endfacet
	facet normal 0 0.9379512993057366 0.34676701130684395
		outer loop
			vertex 7.105427357601002e-14 -134.05039978027344 190.51512145996094
			vertex 600 -134.04693603515625 190.50575256347656
			vertex 7.105427357601002e-14 -134.04693603515625 190.50575256347656
		endloop
	endfacet
	facet normal 0 0.9379512993057366 0.34676701130684395
		outer loop
			vertex 7.105427357601002e-14 -134.05039978027344 190.51512145996094
			vertex 600 -134.05039978027344 190.51512145996094
			vertex 600 -134.04693603515625 190.50575256347656
		endloop
	endfacet
	facet normal 0 -0.3463738761727689 0.9380965504174138
		outer loop
			vertex 600 -134.05039978027344 190.51512145996094
			vertex 7.105427357601002e-14 -134.05039978027344 190.51512145996094
			vertex 7.105427357601002e-14 -180.95523071289062 173.19642639160156
		endloop
	endfacet
	facet normal 0 -0.3463738761727689 0.9380965504174138
		outer loop
			vertex 600 -134.05039978027344 190.51512145996094
			vertex 7.105427357601002e-14 -180.95523071289062 173.19642639160156
			vertex 600 -180.95523071289062 173.19642639160156
		endloop
	endfacet
	facet normal 0 -0.9395701023763472 -0.3423565724803607
		outer loop
			vertex 600 -556.1937866210938 34.64678955078125
			vertex 1.8239862474133534e-13 -556.1903686523438 34.63740921020508
			vertex 600 -556.1903686523438 34.63740921020508
		endloop
	endfacet
	facet normal 0 -0.9395701023763472 -0.3423565724803607
		outer loop
			vertex 600 -556.1937866210938 34.64678955078125
			vertex 2.1316282072803006e-13 -556.1937866210938 34.64678955078125
			vertex 1.8239862474133534e-13 -556.1903686523438 34.63740921020508
		endloop
	endfacet
	facet normal 0 0.937592286146866 0.34773654532978515
		outer loop
			vertex 2.1316282072803006e-13 -509.28900146484375 51.965492248535156
			vertex 600 -509.2855224609375 51.956111907958984
			vertex 2.1316282072803006e-13 -509.2855224609375 51.956111907958984
		endloop
	endfacet
	facet normal 0 0.937592286146866 0.34773654532978515
		outer loop
			vertex 2.1316282072803006e-13 -509.28900146484375 51.965492248535156
			vertex 600 -509.28900146484375 51.965492248535156
			vertex 600 -509.2855224609375 51.956111907958984
		endloop
	endfacet
	facet normal 0 -0.3463743079384859 0.9380963909962212
		outer loop
			vertex 600 -509.28900146484375 51.965492248535156
			vertex 2.1316282072803006e-13 -509.28900146484375 51.965492248535156
			vertex 2.1316282072803006e-13 -556.1937866210938 34.64678955078125
		endloop
	endfacet
	facet normal 0 -0.3463743079384859 0.9380963909962212
		outer loop
			vertex 600 -509.28900146484375 51.965492248535156
			vertex 2.1316282072803006e-13 -556.1937866210938 34.64678955078125
			vertex 600 -556.1937866210938 34.64678955078125
		endloop
	endfacet
	facet normal 0 -0.9385385382116052 -0.3451744664537392
		outer loop
			vertex 600 -462.3841552734375 69.28419494628906
			vertex 1.5163442875464062e-13 -462.3807067871094 69.27481842041016
			vertex 600 -462.3807067871094 69.27481842041016
		endloop
	endfacet
	facet normal 0 -0.9385385382116052 -0.3451744664537392
		outer loop
			vertex 600 -462.3841552734375 69.28419494628906
			vertex 1.4210854715202004e-13 -462.3841552734375 69.28419494628906
			vertex 1.5163442875464062e-13 -462.3807067871094 69.27481842041016
		endloop
	endfacet
	facet normal 0 0.938629427107469 0.34492723662811053
		outer loop
			vertex 1.4210854715202004e-13 -415.4793395996094 86.6029052734375
			vertex 600 -415.47589111328125 86.59352111816406
			vertex 1.4210854715202004e-13 -415.47589111328125 86.59352111816406
		endloop
	endfacet
	facet normal 0 0.938629427107469 0.34492723662811053
		outer loop
			vertex 1.4210854715202004e-13 -415.4793395996094 86.6029052734375
			vertex 600 -415.4793395996094 86.6029052734375
			vertex 600 -415.47589111328125 86.59352111816406
		endloop
	endfacet
	facet normal 0 -0.3463742438965601 0.9380964146424856
		outer loop
			vertex 600 -415.4793395996094 86.6029052734375
			vertex 1.4210854715202004e-13 -415.4793395996094 86.6029052734375
			vertex 1.4210854715202004e-13 -462.3841552734375 69.28419494628906
		endloop
	endfacet
	facet normal 0 -0.3463742438965601 0.9380964146424856
		outer loop
			vertex 600 -415.4793395996094 86.6029052734375
			vertex 1.4210854715202004e-13 -462.3841552734375 69.28419494628906
			vertex 600 -462.3841552734375 69.28419494628906
		endloop
	endfacet
	facet normal 0 -0.9381345960654522 -0.3462708183851344
		outer loop
			vertex 600 -87.14557647705078 207.83383178710938
			vertex 2.857762786720279e-14 -87.1421127319336 207.82444763183594
			vertex 600 -87.1421127319336 207.82444763183594
		endloop
	endfacet
	facet normal 0 -0.9381345960654522 -0.3462708183851344
		outer loop
			vertex 600 -87.14557647705078 207.83383178710938
			vertex 0 -87.14557647705078 207.83383178710938
			vertex 2.857762786720279e-14 -87.1421127319336 207.82444763183594
		endloop
	endfacet
	facet normal 0 0.9381345960654522 0.3462708183851344
		outer loop
			vertex 0 -40.24075698852539 225.1525421142578
			vertex 600 -40.2372932434082 225.14315795898438
			vertex 6.866167827446815e-31 -40.2372932434082 225.14315795898438
		endloop
	endfacet
	facet normal 0 0.9381345960654522 0.3462708183851344
		outer loop
			vertex 0 -40.24075698852539 225.1525421142578
			vertex 600 -40.24075698852539 225.1525421142578
			vertex 600 -40.2372932434082 225.14315795898438
		endloop
	endfacet
	facet normal 0 -0.34637421910618155 0.9380964237958607
		outer loop
			vertex 600 -40.24075698852539 225.1525421142578
			vertex 0 -40.24075698852539 225.1525421142578
			vertex 0 -87.14557647705078 207.83383178710938
		endloop
	endfacet
	facet normal 0 -0.34637421910618155 0.9380964237958607
		outer loop
			vertex 600 -40.24075698852539 225.1525421142578
			vertex 0 -87.14557647705078 207.83383178710938
			vertex 600 -87.14557647705078 207.83383178710938
		endloop
	endfacet
	facet normal 0 -0.34637398643161504 0.9380965097064755
		outer loop
			vertex 0 0 240
			vertex 6.866167827446815e-31 -40.2372932434082 225.14315795898438
			vertex 600 -40.2372932434082 225.14315795898438
		endloop
	endfacet
	facet normal 0 -0.34637398643161504 0.9380965097064755
		outer loop
			vertex 0 0 240
			vertex 600 -40.2372932434082 225.14315795898438
			vertex 600 -9.860761315262648e-30 240
		endloop
	endfacet
	facet normal 0 -0.3463739257534815 0.9380965321107001
		outer loop
			vertex 2.857762786720279e-14 -87.1421127319336 207.82444763183594
			vertex 7.105427357601002e-14 -134.04693603515625 190.50575256347656
			vertex 600 -134.04693603515625 190.50575256347656
		endloop
	endfacet
	facet normal 0 -0.34637392575348147 0.9380965321107001
		outer loop
			vertex 2.857762786720279e-14 -87.1421127319336 207.82444763183594
			vertex 600 -134.04693603515625 190.50575256347656
			vertex 600 -87.1421127319336 207.82444763183594
		endloop
	endfacet
	facet normal 0 -0.3463741767559799 0.938096439432864
		outer loop
			vertex 2.1316282072803006e-13 -509.2855224609375 51.956111907958984
			vertex 600 -509.2855224609375 51.956111907958984
			vertex 600 -462.3807067871094 69.27481842041016
		endloop
	endfacet
	facet normal 0 -0.3463741767559799 0.9380964394328641
		outer loop
			vertex 1.5163442875464062e-13 -462.3807067871094 69.27481842041016
			vertex 2.1316282072803006e-13 -509.2855224609375 51.956111907958984
			vertex 600 -462.3807067871094 69.27481842041016
		endloop
	endfacet
	facet normal 0 -0.3463742438965601 0.9380964146424856
		outer loop
			vertex 5.93418272420293e-14 -180.95176696777344 173.18704223632812
			vertex 7.105427357601002e-14 -227.85658264160156 155.8683319091797
			vertex 600 -227.85658264160156 155.8683319091797
		endloop
	endfacet
	facet normal 0 -0.3463742438965601 0.9380964146424856
		outer loop
			vertex 5.93418272420293e-14 -180.95176696777344 173.18704223632812
			vertex 600 -227.85658264160156 155.8683319091797
			vertex 600 -180.95176696777344 173.18704223632812
		endloop
	endfacet
	facet normal 0 -0.3463739112925145 0.9380965374501312
		outer loop
			vertex 1.2087021921541874e-13 -368.571044921875 103.91222381591797
			vertex 1.4210854715202004e-13 -415.47589111328125 86.59352111816406
			vertex 600 -415.47589111328125 86.59352111816406
		endloop
	endfacet
	facet normal 0 -0.3463739112925145 0.9380965374501312
		outer loop
			vertex 1.2087021921541874e-13 -368.571044921875 103.91222381591797
			vertex 600 -415.47589111328125 86.59352111816406
			vertex 600 -368.571044921875 103.91222381591797
		endloop
	endfacet
	facet normal 0 -0.3463743415087933 0.9380963786010209
		outer loop
			vertex 2.1316282072803006e-13 -603.0951538085938 17.31870460510254
			vertex 600 -603.0951538085938 17.31870460510254
			vertex 600 -556.1903686523438 34.63740921020508
		endloop
	endfacet
	facet normal 0 -0.3463743415087933 0.9380963786010209
		outer loop
			vertex 1.8239862474133534e-13 -556.1903686523438 34.63740921020508
			vertex 2.1316282072803006e-13 -603.0951538085938 17.31870460510254
			vertex 600 -556.1903686523438 34.63740921020508
		endloop
	endfacet
	facet normal 0 0.4395778019821572 0.8982045179159006
		outer loop
			vertex 600 1302.826171875 115.23239135742188
			vertex 617 1284.637451171875 124.13388061523438
			vertex 617 1302.826171875 115.23239135742188
		endloop
	endfacet
	facet normal 0 0.4395778019821572 0.8982045179159006
		outer loop
			vertex 600 1302.826171875 115.23239135742188
			vertex 600 1284.637451171875 124.13388061523438
			vertex 617 1284.637451171875 124.13388061523438
		endloop
	endfacet
	facet normal 0 0.6115157167111211 0.7912322846138699
		outer loop
			vertex 600 1318.8487548828125 102.8490982055664
			vertex 617 1302.826171875 115.23239135742188
			vertex 617 1318.8487548828125 102.8490982055664
		endloop
	endfacet
	facet normal 0 0.6115157167111211 0.7912322846138699
		outer loop
			vertex 600 1318.8487548828125 102.8490982055664
			vertex 600 1302.826171875 115.23239135742188
			vertex 617 1302.826171875 115.23239135742188
		endloop
	endfacet
	facet normal 0 0.7583820686885686 0.6518102775283983
		outer loop
			vertex 600 1332.0479736328125 87.49179077148438
			vertex 617 1318.8487548828125 102.8490982055664
			vertex 617 1332.0479736328125 87.49179077148438
		endloop
	endfacet
	facet normal 0 0.7583820686885686 0.6518102775283983
		outer loop
			vertex 600 1332.0479736328125 87.49179077148438
			vertex 600 1318.8487548828125 102.8490982055664
			vertex 617 1318.8487548828125 102.8490982055664
		endloop
	endfacet
	facet normal 0 0.8741464529921503 0.4856624123001929
		outer loop
			vertex 600 1341.8826904296875 69.79022979736328
			vertex 617 1332.0479736328125 87.49179077148438
			vertex 617 1341.8826904296875 69.79022979736328
		endloop
	endfacet
	facet normal 0 0.8741464529921503 0.4856624123001929
		outer loop
			vertex 600 1341.8826904296875 69.79022979736328
			vertex 600 1332.0479736328125 87.49179077148438
			vertex 617 1332.0479736328125 87.49179077148438
		endloop
	endfacet
	facet normal 0 0.9540638088303651 0.299603485760925
		outer loop
			vertex 600 1347.94970703125 50.47029113769531
			vertex 617 1341.8826904296875 69.79022979736328
			vertex 617 1347.94970703125 50.47029113769531
		endloop
	endfacet
	facet normal 0 0.9540638088303651 0.299603485760925
		outer loop
			vertex 600 1347.94970703125 50.47029113769531
			vertex 600 1341.8826904296875 69.79022979736328
			vertex 617 1341.8826904296875 69.79022979736328
		endloop
	endfacet
	facet normal 0 0.9948611738360915 0.10124843106672923
		outer loop
			vertex 600 1350 30.32423210144043
			vertex 617 1347.94970703125 50.47029113769531
			vertex 617 1350 30.32423210144043
		endloop
	endfacet
	facet normal 0 0.9948611738360915 0.10124843106672923
		outer loop
			vertex 600 1350 30.32423210144043
			vertex 600 1347.94970703125 50.47029113769531
			vertex 617 1347.94970703125 50.47029113769531
		endloop
	endfacet
	facet normal 1 0 0
		outer loop
			vertex 617 1284.637451171875 124.13388061523438
			vertex 617 700 340
			vertex 617 700 0
		endloop
	endfacet
	facet normal 1 0 0
		outer loop
			vertex 617 1332.0479736328125 87.49179077148438
			vertex 617 1318.8487548828125 102.8490982055664
			vertex 617 1302.826171875 115.23239135742188
		endloop
	endfacet
	facet normal 1 0 0
		outer loop
			vertex 617 1341.8826904296875 69.79022979736328
			vertex 617 1302.826171875 115.23239135742188
			vertex 617 1284.637451171875 124.13388061523438
		endloop
	endfacet
	facet normal 1 0 0
		outer loop
			vertex 617 1341.8826904296875 69.79022979736328
			vertex 617 1332.0479736328125 87.49179077148438
			vertex 617 1302.826171875 115.23239135742188
		endloop
	endfacet
	facet normal 1 0 0
		outer loop
			vertex 617 1350 30.32423210144043
			vertex 617 1347.94970703125 50.47029113769531
			vertex 617 1341.8826904296875 69.79022979736328
		endloop
	endfacet
	facet normal 1 0 0
		outer loop
			vertex 617 1350 30.32423210144043
			vertex 617 1341.8826904296875 69.79022979736328
			vertex 617 1284.637451171875 124.13388061523438
		endloop
	endfacet
	facet normal 1 0 0
		outer loop
			vertex 617 1350 0
			vertex 617 1284.637451171875 124.13388061523438
			vertex 617 700 0
		endloop
	endfacet
	facet normal 1 0 0
		outer loop
			vertex 617 1350 0
			vertex 617 1350 30.32423210144043
			vertex 617 1284.637451171875 124.13388061523438
		endloop
	endfacet
	facet normal 0 0.3463740595552773 0.9380964827069749
		outer loop
			vertex 617 700 340
			vertex 617 1284.637451171875 124.13388061523438
			vertex 600 1284.637451171875 124.13388061523438
		endloop
	endfacet
	facet normal 0 0.3463740595552773 0.9380964827069749
		outer loop
			vertex 617 700 340
			vertex 600 1284.637451171875 124.13388061523438
			vertex 600 700 340
		endloop
	endfacet
	facet normal 0 0.43957780198215735 0.8982045179159007
		outer loop
			vertex -17 1302.826171875 115.23239135742188
			vertex -4.080629876970082e-13 1284.637451171875 124.13388061523438
			vertex -1.6086536332063188e-14 1302.826171875 115.23239135742188
		endloop
	endfacet
	facet normal 0 0.43957780198215723 0.8982045179159006
		outer loop
			vertex -17 1302.826171875 115.23239135742188
			vertex -17 1284.637451171875 124.13388061523438
			vertex -4.080629876970082e-13 1284.637451171875 124.13388061523438
		endloop
	endfacet
	facet normal 0 0.611515716711121 0.7912322846138699
		outer loop
			vertex -17 1318.8487548828125 102.8490982055664
			vertex -1.6086536332063188e-14 1302.826171875 115.23239135742188
			vertex -2.0965691747802662e-14 1318.8487548828125 102.8490982055664
		endloop
	endfacet
	facet normal 0 0.6115157167111211 0.79123228461387
		outer loop
			vertex -17 1318.8487548828125 102.8490982055664
			vertex -17 1302.826171875 115.23239135742188
			vertex -1.6086536332063188e-14 1302.826171875 115.23239135742188
		endloop
	endfacet
	facet normal 0 0.7583820686885686 0.6518102775283982
		outer loop
			vertex -17 1332.0479736328125 87.49179077148438
			vertex -2.0965691747802662e-14 1318.8487548828125 102.8490982055664
			vertex -2.498511211021081e-14 1332.0479736328125 87.49179077148438
		endloop
	endfacet
	facet normal 0 0.7583820686885685 0.6518102775283982
		outer loop
			vertex -17 1332.0479736328125 87.49179077148438
			vertex -17 1318.8487548828125 102.8490982055664
			vertex -2.0965691747802662e-14 1318.8487548828125 102.8490982055664
		endloop
	endfacet
	facet normal 0 0.8741464529921503 0.4856624123001929
		outer loop
			vertex -17 1341.8826904296875 69.79022979736328
			vertex -2.498511211021081e-14 1332.0479736328125 87.49179077148438
			vertex -2.7979973278081417e-14 1341.8826904296875 69.79022979736328
		endloop
	endfacet
	facet normal 0 0.8741464529921503 0.4856624123001929
		outer loop
			vertex -17 1341.8826904296875 69.79022979736328
			vertex -17 1332.0479736328125 87.49179077148438
			vertex -2.498511211021081e-14 1332.0479736328125 87.49179077148438
		endloop
	endfacet
	facet normal 0 0.9540638088303651 0.299603485760925
		outer loop
			vertex -17 1347.94970703125 50.47029113769531
			vertex -2.7979973278081417e-14 1341.8826904296875 69.79022979736328
			vertex -2.982746563845798e-14 1347.94970703125 50.47029113769531
		endloop
	endfacet
	facet normal 0 0.9948611738360915 0.10124843106672923
		outer loop
			vertex -17 1347.94970703125 50.47029113769531
			vertex -2.982746563845798e-14 1347.94970703125 50.47029113769531
			vertex -4.2882529666977975e-13 1350 30.32423210144043
		endloop
	endfacet
	facet normal 0 0.9540638088303651 0.299603485760925
		outer loop
			vertex -17 1347.94970703125 50.47029113769531
			vertex -17 1341.8826904296875 69.79022979736328
			vertex -2.7979973278081417e-14 1341.8826904296875 69.79022979736328
		endloop
	endfacet
	facet normal 0 0.9948611738360915 0.10124843106672922
		outer loop
			vertex -17 1350 30.32423210144043
			vertex -17 1347.94970703125 50.47029113769531
			vertex -4.2882529666977975e-13 1350 30.32423210144043
		endloop
	endfacet
	facet normal 0 1 0
		outer loop
			vertex -4.26324503043779e-13 1350 0.010659884661436081
			vertex -17 1350 30.32423210144043
			vertex -4.2882529666977975e-13 1350 30.32423210144043
		endloop
	endfacet
	facet normal 0 1 0
		outer loop
			vertex -17 1350 0
			vertex -4.26324503043779e-13 1350 0.010659884661436081
			vertex -4.263256414560601e-13 1350 0
		endloop
	endfacet
	facet normal 0 1 0
		outer loop
			vertex -17 1350 0
			vertex -17 1350 30.32423210144043
			vertex -4.26324503043779e-13 1350 0.010659884661436081
		endloop
	endfacet
	facet normal 0 -0.4395766119379489 0.8982051003179362
		outer loop
			vertex 1.8570912765480257e-13 -584.6373901367188 124.13388061523438
			vertex -17 -584.6373901367188 124.13388061523438
			vertex -17 -602.826171875 115.23239135742188
		endloop
	endfacet
	facet normal 0 -0.43957661193794895 0.8982051003179363
		outer loop
			vertex 1.907931413769673e-13 -602.826171875 115.23239135742188
			vertex 1.8570912765480257e-13 -584.6373901367188 124.13388061523438
			vertex -17 -602.826171875 115.23239135742188
		endloop
	endfacet
	facet normal 0 -0.6115171750682173 0.7912311574986084
		outer loop
			vertex 1.9567229509864087e-13 -618.8486938476562 102.8490982055664
			vertex -17 -602.826171875 115.23239135742188
			vertex -17 -618.8486938476562 102.8490982055664
		endloop
	endfacet
	facet normal 0 -0.6115171750682173 0.7912311574986083
		outer loop
			vertex 1.9567229509864087e-13 -618.8486938476562 102.8490982055664
			vertex 1.907931413769673e-13 -602.826171875 115.23239135742188
			vertex -17 -602.826171875 115.23239135742188
		endloop
	endfacet
	facet normal 0 -0.7583805787717506 0.6518120110444612
		outer loop
			vertex 1.996917171551149e-13 -632.0479736328125 87.49179077148438
			vertex -17 -618.8486938476562 102.8490982055664
			vertex -17 -632.0479736328125 87.49179077148438
		endloop
	endfacet
	facet normal 0 -0.7583805787717505 0.6518120110444612
		outer loop
			vertex 1.996917171551149e-13 -632.0479736328125 87.49179077148438
			vertex 1.9567229509864087e-13 -618.8486938476562 102.8490982055664
			vertex -17 -618.8486938476562 102.8490982055664
		endloop
	endfacet
	facet normal 0 -0.8741451733993689 0.48566471543914674
		outer loop
			vertex 2.026865817111173e-13 -641.8827514648438 69.79022979736328
			vertex -17 -632.0479736328125 87.49179077148438
			vertex -17 -641.8827514648438 69.79022979736328
		endloop
	endfacet
	facet normal 0 -0.8741451733993689 0.48566471543914674
		outer loop
			vertex 2.026865817111173e-13 -641.8827514648438 69.79022979736328
			vertex 1.996917171551149e-13 -632.0479736328125 87.49179077148438
			vertex -17 -632.0479736328125 87.49179077148438
		endloop
	endfacet
	facet normal 0 -0.9540655318999878 0.2995979987256147
		outer loop
			vertex 2.0453407576555976e-13 -647.9496459960938 50.47029113769531
			vertex -17 -641.8827514648438 69.79022979736328
			vertex -17 -647.9496459960938 50.47029113769531
		endloop
	endfacet
	facet normal 0 -0.9540655318999879 0.2995979987256147
		outer loop
			vertex 2.0453407576555976e-13 -647.9496459960938 50.47029113769531
			vertex 2.026865817111173e-13 -641.8827514648438 69.79022979736328
			vertex -17 -641.8827514648438 69.79022979736328
		endloop
	endfacet
	facet normal 0 -0.9948608702306927 0.10125141423125479
		outer loop
			vertex 2.064714366275741e-13 -650 30.32423210144043
			vertex -17 -647.9496459960938 50.47029113769531
			vertex -17 -650 30.32423210144043
		endloop
	endfacet
	facet normal 0 -0.9948608702306927 0.10125141423125479
		outer loop
			vertex 2.064714366275741e-13 -650 30.32423210144043
			vertex 2.0453407576555976e-13 -647.9496459960938 50.47029113769531
			vertex -17 -647.9496459960938 50.47029113769531
		endloop
	endfacet
	facet normal 0 -1 0
		outer loop
			vertex -17 -650 -7.105427357601002e-14
			vertex 2.1316282072803006e-13 -650 -7.96020421887228e-14
			vertex 2.1316273941286712e-13 -650 0.010659884661436081
		endloop
	endfacet
	facet normal 0 -1 0
		outer loop
			vertex -17 -650 30.32423210144043
			vertex 2.1316273941286712e-13 -650 0.010659884661436081
			vertex 2.064714366275741e-13 -650 30.32423210144043
		endloop
	endfacet
	facet normal 0 -1 0
		outer loop
			vertex -17 -650 30.32423210144043
			vertex -17 -650 -7.105427357601002e-14
			vertex 2.1316273941286712e-13 -650 0.010659884661436081
		endloop
	endfacet
	facet normal 0 -0.4395766119379489 0.8982051003179362
		outer loop
			vertex 617 -584.6373901367188 124.13388061523438
			vertex 600 -584.6373901367188 124.13388061523438
			vertex 600 -602.826171875 115.23239135742188
		endloop
	endfacet
	facet normal 0 -0.6115171750682173 0.7912311574986082
		outer loop
			vertex 617 -602.826171875 115.23239135742188
			vertex 600 -602.826171875 115.23239135742188
			vertex 600 -618.8486938476562 102.8490982055664
		endloop
	endfacet
	facet normal 0 -0.4395766119379489 0.8982051003179362
		outer loop
			vertex 617 -602.826171875 115.23239135742188
			vertex 617 -584.6373901367188 124.13388061523438
			vertex 600 -602.826171875 115.23239135742188
		endloop
	endfacet
	facet normal 0 -0.7583805787717505 0.6518120110444612
		outer loop
			vertex 617 -618.8486938476562 102.8490982055664
			vertex 600 -618.8486938476562 102.8490982055664
			vertex 600 -632.0479736328125 87.49179077148438
		endloop
	endfacet
	facet normal 0 -0.6115171750682173 0.7912311574986082
		outer loop
			vertex 617 -618.8486938476562 102.8490982055664
			vertex 617 -602.826171875 115.23239135742188
			vertex 600 -618.8486938476562 102.8490982055664
		endloop
	endfacet
	facet normal 0 -0.8741451733993688 0.48566471543914674
		outer loop
			vertex 617 -632.0479736328125 87.49179077148438
			vertex 600 -632.0479736328125 87.49179077148438
			vertex 600 -641.8827514648438 69.79022979736328
		endloop
	endfacet
	facet normal 0 -0.7583805787717505 0.6518120110444612
		outer loop
			vertex 617 -632.0479736328125 87.49179077148438
			vertex 617 -618.8486938476562 102.8490982055664
			vertex 600 -632.0479736328125 87.49179077148438
		endloop
	endfacet
	facet normal 0 -0.9540655318999878 0.2995979987256147
		outer loop
			vertex 617 -641.8827514648438 69.79022979736328
			vertex 600 -641.8827514648438 69.79022979736328
			vertex 600 -647.9496459960938 50.47029113769531
		endloop
	endfacet
	facet normal 0 -0.8741451733993688 0.48566471543914674
		outer loop
			vertex 617 -641.8827514648438 69.79022979736328
			vertex 617 -632.0479736328125 87.49179077148438
			vertex 600 -641.8827514648438 69.79022979736328
		endloop
	endfacet
	facet normal 0 -0.9540655318999878 0.2995979987256147
		outer loop
			vertex 617 -647.9496459960938 50.47029113769531
			vertex 617 -641.8827514648438 69.79022979736328
			vertex 600 -647.9496459960938 50.47029113769531
		endloop
	endfacet
	facet normal 0 -0.9948608702306927 0.1012514142312548
		outer loop
			vertex 617 -650 30.32423210144043
			vertex 600 -647.9496459960938 50.47029113769531
			vertex 600 -650 30.32423210144043
		endloop
	endfacet
	facet normal 0 -0.9948608702306927 0.1012514142312548
		outer loop
			vertex 617 -650 30.32423210144043
			vertex 617 -647.9496459960938 50.47029113769531
			vertex 600 -647.9496459960938 50.47029113769531
		endloop
	endfacet
	facet normal -1 0 0
		outer loop
			vertex 600 -603.0986328125 17.32808494567871
			vertex 600 -641.8827514648438 69.79022979736328
			vertex 600 -632.0479736328125 87.49179077148438
		endloop
	endfacet
	facet normal -1 0 0
		outer loop
			vertex 600 -603.0986328125 17.32808494567871
			vertex 600 -647.9496459960938 50.47029113769531
			vertex 600 -641.8827514648438 69.79022979736328
		endloop
	endfacet
	facet normal -1 0 0
		outer loop
			vertex 600 -603.0986328125 17.32808494567871
			vertex 600 -650 30.32423210144043
			vertex 600 -647.9496459960938 50.47029113769531
		endloop
	endfacet
	facet normal -1 0 0
		outer loop
			vertex 600 -603.0986328125 17.32808494567871
			vertex 600 -650 0.010659884661436081
			vertex 600 -650 30.32423210144043
		endloop
	endfacet
	facet normal -1 0 0
		outer loop
			vertex 600 -556.1937866210938 34.64678955078125
			vertex 600 -602.826171875 115.23239135742188
			vertex 600 -584.6373901367188 124.13388061523438
		endloop
	endfacet
	facet normal -1 0 0
		outer loop
			vertex 600 -556.1937866210938 34.64678955078125
			vertex 600 -618.8486938476562 102.8490982055664
			vertex 600 -602.826171875 115.23239135742188
		endloop
	endfacet
	facet normal -1 0 0
		outer loop
			vertex 600 -556.1937866210938 34.64678955078125
			vertex 600 -632.0479736328125 87.49179077148438
			vertex 600 -618.8486938476562 102.8490982055664
		endloop
	endfacet
	facet normal -1 0 0
		outer loop
			vertex 600 -556.1937866210938 34.64678955078125
			vertex 600 -603.0986328125 17.32808494567871
			vertex 600 -632.0479736328125 87.49179077148438
		endloop
	endfacet
	facet normal -1 0 0
		outer loop
			vertex 600 -556.1903686523438 34.63740921020508
			vertex 600 -603.0951538085938 17.31870460510254
			vertex 600 -603.0986328125 17.32808494567871
		endloop
	endfacet
	facet normal -1 0 0
		outer loop
			vertex 600 -556.1903686523438 34.63740921020508
			vertex 600 -603.0986328125 17.32808494567871
			vertex 600 -556.1937866210938 34.64678955078125
		endloop
	endfacet
	facet normal -1 0 0
		outer loop
			vertex 600 -509.28900146484375 51.965492248535156
			vertex 600 -556.1937866210938 34.64678955078125
			vertex 600 -584.6373901367188 124.13388061523438
		endloop
	endfacet
	facet normal -1 0 0
		outer loop
			vertex 600 -462.3841552734375 69.28419494628906
			vertex 600 -509.28900146484375 51.965492248535156
			vertex 600 -584.6373901367188 124.13388061523438
		endloop
	endfacet
	facet normal -1 0 0
		outer loop
			vertex 600 -462.3807067871094 69.27481842041016
			vertex 600 -509.2855224609375 51.956111907958984
			vertex 600 -509.28900146484375 51.965492248535156
		endloop
	endfacet
	facet normal -1 0 0
		outer loop
			vertex 600 -462.3807067871094 69.27481842041016
			vertex 600 -509.28900146484375 51.965492248535156
			vertex 600 -462.3841552734375 69.28419494628906
		endloop
	endfacet
	facet normal -1 0 0
		outer loop
			vertex 600 -415.4793395996094 86.6029052734375
			vertex 600 -462.3841552734375 69.28419494628906
			vertex 600 -584.6373901367188 124.13388061523438
		endloop
	endfacet
	facet normal -1 0 0
		outer loop
			vertex 600 -368.57452392578125 103.9216079711914
			vertex 600 -415.4793395996094 86.6029052734375
			vertex 600 -584.6373901367188 124.13388061523438
		endloop
	endfacet
	facet normal -1 0 0
		outer loop
			vertex 600 -368.571044921875 103.91222381591797
			vertex 600 -415.47589111328125 86.59352111816406
			vertex 600 -415.4793395996094 86.6029052734375
		endloop
	endfacet
	facet normal -1 0 0
		outer loop
			vertex 600 -368.571044921875 103.91222381591797
			vertex 600 -415.4793395996094 86.6029052734375
			vertex 600 -368.57452392578125 103.9216079711914
		endloop
	endfacet
	facet normal -1 0 0
		outer loop
			vertex 600 -321.6697082519531 121.24031066894531
			vertex 600 -368.57452392578125 103.9216079711914
			vertex 600 -584.6373901367188 124.13388061523438
		endloop
	endfacet
	facet normal -1 0 0
		outer loop
			vertex 600 -274.7648620605469 138.55902099609375
			vertex 600 -321.6662292480469 121.23092651367188
			vertex 600 -321.6697082519531 121.24031066894531
		endloop
	endfacet
	facet normal -1 0 0
		outer loop
			vertex 600 -274.7648620605469 138.55902099609375
			vertex 600 -321.6697082519531 121.24031066894531
			vertex 600 -584.6373901367188 124.13388061523438
		endloop
	endfacet
	facet normal -1 0 0
		outer loop
			vertex 600 -274.76141357421875 138.5496368408203
			vertex 600 -321.6662292480469 121.23092651367188
			vertex 600 -274.7648620605469 138.55902099609375
		endloop
	endfacet
	facet normal -1 0 0
		outer loop
			vertex 600 -180.95176696777344 173.18704223632812
			vertex 600 -227.85658264160156 155.8683319091797
			vertex 600 -227.86004638671875 155.87771606445312
		endloop
	endfacet
	facet normal -1 0 0
		outer loop
			vertex 600 -180.95176696777344 173.18704223632812
			vertex 600 -227.86004638671875 155.87771606445312
			vertex 600 -180.95523071289062 173.19642639160156
		endloop
	endfacet
	facet normal -1 0 0
		outer loop
			vertex 600 -1.4210854715202004e-13 340
			vertex 600 -227.86004638671875 155.87771606445312
			vertex 600 -274.7648620605469 138.55902099609375
		endloop
	endfacet
	facet normal -1 0 0
		outer loop
			vertex 600 -1.4210854715202004e-13 340
			vertex 600 -274.7648620605469 138.55902099609375
			vertex 600 -584.6373901367188 124.13388061523438
		endloop
	endfacet
	facet normal -1 0 0
		outer loop
			vertex 600 -1.4210854715202004e-13 340
			vertex 600 -180.95523071289062 173.19642639160156
			vertex 600 -227.86004638671875 155.87771606445312
		endloop
	endfacet
	facet normal -1 0 0
		outer loop
			vertex 600 -134.05039978027344 190.51512145996094
			vertex 600 -180.95523071289062 173.19642639160156
			vertex 600 -1.4210854715202004e-13 340
		endloop
	endfacet
	facet normal -1 0 0
		outer loop
			vertex 600 -87.14557647705078 207.83383178710938
			vertex 600 -134.05039978027344 190.51512145996094
			vertex 600 -1.4210854715202004e-13 340
		endloop
	endfacet
	facet normal -1 0 0
		outer loop
			vertex 600 -87.1421127319336 207.82444763183594
			vertex 600 -134.05039978027344 190.51512145996094
			vertex 600 -87.14557647705078 207.83383178710938
		endloop
	endfacet
	facet normal -1 0 0
		outer loop
			vertex 600 -87.1421127319336 207.82444763183594
			vertex 600 -134.04693603515625 190.50575256347656
			vertex 600 -134.05039978027344 190.51512145996094
		endloop
	endfacet
	facet normal -1 0 0
		outer loop
			vertex 600 -40.24075698852539 225.1525421142578
			vertex 600 -87.14557647705078 207.83383178710938
			vertex 600 -1.4210854715202004e-13 340
		endloop
	endfacet
	facet normal -1 0 0
		outer loop
			vertex 600 -9.860761315262648e-30 240
			vertex 600 -40.2372932434082 225.14315795898438
			vertex 600 -40.24075698852539 225.1525421142578
		endloop
	endfacet
	facet normal -1 0 0
		outer loop
			vertex 600 -9.860761315262648e-30 240
			vertex 600 -40.24075698852539 225.1525421142578
			vertex 600 -1.4210854715202004e-13 340
		endloop
	endfacet
	facet normal -1 0 0
		outer loop
			vertex 600 17 240
			vertex 600 -1.4210854715202004e-13 340
			vertex 600 17 340
		endloop
	endfacet
	facet normal -1 0 0
		outer loop
			vertex 600 17 240
			vertex 600 -9.860761315262648e-30 240
			vertex 600 -1.4210854715202004e-13 340
		endloop
	endfacet
	facet normal 1.0547718377346483e-16 -0.346374091377744 0.9380964709571411
		outer loop
			vertex 600 -584.6373901367188 124.13388061523438
			vertex 617 -1.3693173927641772e-13 340
			vertex 600 -1.4210854715202004e-13 340
		endloop
	endfacet
	facet normal 0 -0.346374091377744 0.9380964709571411
		outer loop
			vertex 617 -584.6373901367188 124.13388061523438
			vertex 617 -1.3693173927641772e-13 340
			vertex 600 -584.6373901367188 124.13388061523438
		endloop
	endfacet
	facet normal 0 -0.346374091377744 0.9380964709571411
		outer loop
			vertex 0 0 340
			vertex -17 -584.6373901367188 124.13388061523438
			vertex 1.8570912765480257e-13 -584.6373901367188 124.13388061523438
		endloop
	endfacet
	facet normal 0 -0.34637409137774394 0.9380964709571411
		outer loop
			vertex -17 -5.204748951433396e-15 340
			vertex -17 -584.6373901367188 124.13388061523438
			vertex 0 0 340
		endloop
	endfacet
	facet normal 0 0.3463740595552773 0.9380964827069748
		outer loop
			vertex -4.080629876970082e-13 1284.637451171875 124.13388061523438
			vertex -17 700 340
			vertex -2.1316282072803006e-13 700 340
		endloop
	endfacet
	facet normal 0 0.3463740595552773 0.9380964827069749
		outer loop
			vertex -17 1284.637451171875 124.13388061523438
			vertex -17 700 340
			vertex -4.080629876970082e-13 1284.637451171875 124.13388061523438
		endloop
	endfacet
	facet normal -1 0 0
		outer loop
			vertex -17 1332.0479736328125 87.49179077148438
			vertex -17 1347.94970703125 50.47029113769531
			vertex -17 1350 30.32423210144043
		endloop
	endfacet
	facet normal -1 0 0
		outer loop
			vertex -17 1332.0479736328125 87.49179077148438
			vertex -17 1341.8826904296875 69.79022979736328
			vertex -17 1347.94970703125 50.47029113769531
		endloop
	endfacet
	facet normal -1 0 0
		outer loop
			vertex -17 1302.826171875 115.23239135742188
			vertex -17 1318.8487548828125 102.8490982055664
			vertex -17 1332.0479736328125 87.49179077148438
		endloop
	endfacet
	facet normal -1 0 0
		outer loop
			vertex -17 1302.826171875 115.23239135742188
			vertex -17 1332.0479736328125 87.49179077148438
			vertex -17 1350 30.32423210144043
		endloop
	endfacet
	facet normal -1 0 0
		outer loop
			vertex -17 1284.637451171875 124.13388061523438
			vertex -17 1350 30.32423210144043
			vertex -17 1350 0
		endloop
	endfacet
	facet normal -1 0 0
		outer loop
			vertex -17 1284.637451171875 124.13388061523438
			vertex -17 1302.826171875 115.23239135742188
			vertex -17 1350 30.32423210144043
		endloop
	endfacet
	facet normal -1 0 0
		outer loop
			vertex -17 700 340
			vertex -17 1284.637451171875 124.13388061523438
			vertex -17 1350 0
		endloop
	endfacet
	facet normal -1 0 0
		outer loop
			vertex -17 -5.204748951433396e-15 340
			vertex -17 700 340
			vertex -17 1350 0
		endloop
	endfacet
	facet normal -1 0 0
		outer loop
			vertex -17 -650 -7.105427357601002e-14
			vertex -17 -5.204748951433396e-15 340
			vertex -17 1350 0
		endloop
	endfacet
	facet normal -1 0 0
		outer loop
			vertex -17 -584.6373901367188 124.13388061523438
			vertex -17 -650 -7.105427357601002e-14
			vertex -17 -650 30.32423210144043
		endloop
	endfacet
	facet normal -1 0 0
		outer loop
			vertex -17 -584.6373901367188 124.13388061523438
			vertex -17 -5.204748951433396e-15 340
			vertex -17 -650 -7.105427357601002e-14
		endloop
	endfacet
	facet normal -1 0 0
		outer loop
			vertex -17 -641.8827514648438 69.79022979736328
			vertex -17 -650 30.32423210144043
			vertex -17 -647.9496459960938 50.47029113769531
		endloop
	endfacet
	facet normal -1 0 0
		outer loop
			vertex -17 -632.0479736328125 87.49179077148438
			vertex -17 -650 30.32423210144043
			vertex -17 -641.8827514648438 69.79022979736328
		endloop
	endfacet
	facet normal -1 0 0
		outer loop
			vertex -17 -618.8486938476562 102.8490982055664
			vertex -17 -602.826171875 115.23239135742188
			vertex -17 -584.6373901367188 124.13388061523438
		endloop
	endfacet
	facet normal -1 0 0
		outer loop
			vertex -17 -618.8486938476562 102.8490982055664
			vertex -17 -584.6373901367188 124.13388061523438
			vertex -17 -650 30.32423210144043
		endloop
	endfacet
	facet normal -1 0 0
		outer loop
			vertex -17 -618.8486938476562 102.8490982055664
			vertex -17 -650 30.32423210144043
			vertex -17 -632.0479736328125 87.49179077148438
		endloop
	endfacet
	facet normal 0 0 1
		outer loop
			vertex -2.1316282072803006e-13 700 340
			vertex -17 -5.204748951433396e-15 340
			vertex 0 0 340
		endloop
	endfacet
	facet normal 0 0 1
		outer loop
			vertex -2.1316282072803006e-13 700 340
			vertex -17 700 340
			vertex -17 -5.204748951433396e-15 340
		endloop
	endfacet
	facet normal 2.1769078914218757e-16 -1 -2.786566598254758e-16
		outer loop
			vertex 617 -1.3693173927641772e-13 340
			vertex 617 -4.218847493575595e-14 0
			vertex 770 -8.881784197001252e-15 0
		endloop
	endfacet
	facet normal 8.949786880811616e-16 -1 2.612289469706251e-17
		outer loop
			vertex 770 -9.860761315262648e-30 340
			vertex 617 -1.3693173927641772e-13 340
			vertex 770 -8.881784197001252e-15 0
		endloop
	endfacet
	facet normal 0 1 0
		outer loop
			vertex 770 700 340
			vertex 770 700 0
			vertex 617 700 0
		endloop
	endfacet
	facet normal 0 1 0
		outer loop
			vertex 617 700 340
			vertex 770 700 340
			vertex 617 700 0
		endloop
	endfacet
	facet normal 0 1 0
		outer loop
			vertex 600 17 340
			vertex 753 17 240
			vertex 600 17 240
		endloop
	endfacet
	facet normal 0 1 0
		outer loop
			vertex 600 17 340
			vertex 753 17 340
			vertex 753 17 240
		endloop
	endfacet
	facet normal -1 0 0
		outer loop
			vertex 753 17 340
			vertex 753 683 240
			vertex 753 17 240
		endloop
	endfacet
	facet normal -1 0 0
		outer loop
			vertex 753 17 340
			vertex 753 683 340
			vertex 753 683 240
		endloop
	endfacet
	facet normal 0 -1 0
		outer loop
			vertex 753 683 340
			vertex 600 683 240
			vertex 753 683 240
		endloop
	endfacet
	facet normal 0 -1 0
		outer loop
			vertex 753 683 340
			vertex 600 683 340
			vertex 600 683 240
		endloop
	endfacet
	facet normal 1 0 0
		outer loop
			vertex 770 700 340
			vertex 770 -9.860761315262648e-30 340
			vertex 770 -8.881784197001252e-15 0
		endloop
	endfacet
	facet normal 1 0 0
		outer loop
			vertex 770 700 340
			vertex 770 -8.881784197001252e-15 0
			vertex 770 700 0
		endloop
	endfacet
	facet normal 0 0 1
		outer loop
			vertex 600 17 340
			vertex 600 -1.4210854715202004e-13 340
			vertex 617 -1.3693173927641772e-13 340
		endloop
	endfacet
	facet normal 0 0 1
		outer loop
			vertex 753 17 340
			vertex 600 17 340
			vertex 617 -1.3693173927641772e-13 340
		endloop
	endfacet
	facet normal 0 0 1
		outer loop
			vertex 770 -9.860761315262648e-30 340
			vertex 753 17 340
			vertex 617 -1.3693173927641772e-13 340
		endloop
	endfacet
	facet normal 0 0 1
		outer loop
			vertex 617 700 340
			vertex 600 700 340
			vertex 600 683 340
		endloop
	endfacet
	facet normal 0 0 1
		outer loop
			vertex 753 683 340
			vertex 617 700 340
			vertex 600 683 340
		endloop
	endfacet
	facet normal 0 0 1
		outer loop
			vertex 770 700 340
			vertex 753 683 340
			vertex 753 17 340
		endloop
	endfacet
	facet normal 0 0 1
		outer loop
			vertex 770 700 340
			vertex 753 17 340
			vertex 770 -9.860761315262648e-30 340
		endloop
	endfacet
	facet normal 0 0 1
		outer loop
			vertex 770 700 340
			vertex 617 700 340
			vertex 753 683 340
		endloop
	endfacet
	facet normal 0 1 0
		outer loop
			vertex 617 1350 0
			vertex 600 1350 0
			vertex 600 1350 0.010659884661436081
		endloop
	endfacet
	facet normal 0 1 0
		outer loop
			vertex 617 1350 30.32423210144043
			vertex 600 1350 0.010659884661436081
			vertex 600 1350 30.32423210144043
		endloop
	endfacet
	facet normal 0 1 0
		outer loop
			vertex 617 1350 30.32423210144043
			vertex 617 1350 0
			vertex 600 1350 0.010659884661436081
		endloop
	endfacet
	facet normal -1 0 0
		outer loop
			vertex 600 700 240
			vertex 600 683 340
			vertex 600 700 340
		endloop
	endfacet
	facet normal -1 0 0
		outer loop
			vertex 600 700 240
			vertex 600 683 240
			vertex 600 683 340
		endloop
	endfacet
	facet normal -1 0 0
		outer loop
			vertex 600 740.2407836914062 225.1525421142578
			vertex 600 700 240
			vertex 600 700 340
		endloop
	endfacet
	facet normal -1 0 0
		outer loop
			vertex 600 740.2373046875 225.14315795898438
			vertex 600 700 240
			vertex 600 740.2407836914062 225.1525421142578
		endloop
	endfacet
	facet normal -1 0 0
		outer loop
			vertex 600 787.1455688476562 207.83383178710938
			vertex 600 740.2407836914062 225.1525421142578
			vertex 600 700 340
		endloop
	endfacet
	facet normal -1 0 0
		outer loop
			vertex 600 834.0504150390625 190.51512145996094
			vertex 600 787.1455688476562 207.83383178710938
			vertex 600 700 340
		endloop
	endfacet
	facet normal -1 0 0
		outer loop
			vertex 600 834.0469360351562 190.50575256347656
			vertex 600 787.14208984375 207.82444763183594
			vertex 600 787.1455688476562 207.83383178710938
		endloop
	endfacet
	facet normal -1 0 0
		outer loop
			vertex 600 834.0469360351562 190.50575256347656
			vertex 600 787.1455688476562 207.83383178710938
			vertex 600 834.0504150390625 190.51512145996094
		endloop
	endfacet
	facet normal -1 0 0
		outer loop
			vertex 600 880.9552001953125 173.19642639160156
			vertex 600 834.0504150390625 190.51512145996094
			vertex 600 700 340
		endloop
	endfacet
	facet normal -1 0 0
		outer loop
			vertex 600 927.8600463867188 155.87771606445312
			vertex 600 880.9552001953125 173.19642639160156
			vertex 600 700 340
		endloop
	endfacet
	facet normal -1 0 0
		outer loop
			vertex 600 927.8565673828125 155.8683319091797
			vertex 600 880.9517822265625 173.18704223632812
			vertex 600 880.9552001953125 173.19642639160156
		endloop
	endfacet
	facet normal -1 0 0
		outer loop
			vertex 600 927.8565673828125 155.8683319091797
			vertex 600 880.9552001953125 173.19642639160156
			vertex 600 927.8600463867188 155.87771606445312
		endloop
	endfacet
	facet normal -1 0 0
		outer loop
			vertex 600 974.764892578125 138.55902099609375
			vertex 600 927.8600463867188 155.87771606445312
			vertex 600 700 340
		endloop
	endfacet
	facet normal -1 0 0
		outer loop
			vertex 600 1021.666259765625 121.23092651367188
			vertex 600 974.7614135742188 138.5496368408203
			vertex 600 974.764892578125 138.55902099609375
		endloop
	endfacet
	facet normal -1 0 0
		outer loop
			vertex 600 1021.666259765625 121.23092651367188
			vertex 600 974.764892578125 138.55902099609375
			vertex 600 1021.669677734375 121.24031066894531
		endloop
	endfacet
	facet normal -1 0 0
		outer loop
			vertex 600 1115.475830078125 86.59352111816406
			vertex 600 1068.571044921875 103.91222381591797
			vertex 600 1068.574462890625 103.9216079711914
		endloop
	endfacet
	facet normal -1 0 0
		outer loop
			vertex 600 1115.475830078125 86.59352111816406
			vertex 600 1068.574462890625 103.9216079711914
			vertex 600 1115.4793701171875 86.6029052734375
		endloop
	endfacet
	facet normal -1 0 0
		outer loop
			vertex 600 1209.2855224609375 51.956111907958984
			vertex 600 1162.3807373046875 69.27481842041016
			vertex 600 1162.3841552734375 69.28419494628906
		endloop
	endfacet
	facet normal -1 0 0
		outer loop
			vertex 600 1209.2855224609375 51.956111907958984
			vertex 600 1162.3841552734375 69.28419494628906
			vertex 600 1209.2889404296875 51.965492248535156
		endloop
	endfacet
	facet normal -1 0 0
		outer loop
			vertex 600 1284.637451171875 124.13388061523438
			vertex 600 1162.3841552734375 69.28419494628906
			vertex 600 1115.4793701171875 86.6029052734375
		endloop
	endfacet
	facet normal -1 0 0
		outer loop
			vertex 600 1284.637451171875 124.13388061523438
			vertex 600 1068.574462890625 103.9216079711914
			vertex 600 1021.669677734375 121.24031066894531
		endloop
	endfacet
	facet normal -1 0 0
		outer loop
			vertex 600 1284.637451171875 124.13388061523438
			vertex 600 974.764892578125 138.55902099609375
			vertex 600 700 340
		endloop
	endfacet
	facet normal -1 0 0
		outer loop
			vertex 600 1284.637451171875 124.13388061523438
			vertex 600 1021.669677734375 121.24031066894531
			vertex 600 974.764892578125 138.55902099609375
		endloop
	endfacet
	facet normal -1 0 0
		outer loop
			vertex 600 1284.637451171875 124.13388061523438
			vertex 600 1115.4793701171875 86.6029052734375
			vertex 600 1068.574462890625 103.9216079711914
		endloop
	endfacet
	facet normal -1 0 0
		outer loop
			vertex 600 1284.637451171875 124.13388061523438
			vertex 600 1209.2889404296875 51.965492248535156
			vertex 600 1162.3841552734375 69.28419494628906
		endloop
	endfacet
	facet normal -1 0 0
		outer loop
			vertex 600 1256.19384765625 34.64678955078125
			vertex 600 1302.826171875 115.23239135742188
			vertex 600 1318.8487548828125 102.8490982055664
		endloop
	endfacet
	facet normal -1 0 0
		outer loop
			vertex 600 1256.19384765625 34.64678955078125
			vertex 600 1284.637451171875 124.13388061523438
			vertex 600 1302.826171875 115.23239135742188
		endloop
	endfacet
	facet normal -1 0 0
		outer loop
			vertex 600 1256.19384765625 34.64678955078125
			vertex 600 1209.2889404296875 51.965492248535156
			vertex 600 1284.637451171875 124.13388061523438
		endloop
	endfacet
	facet normal -1 0 0
		outer loop
			vertex 600 1332.0479736328125 87.49179077148438
			vertex 600 1256.19384765625 34.64678955078125
			vertex 600 1318.8487548828125 102.8490982055664
		endloop
	endfacet
	facet normal -1 0 0
		outer loop
			vertex 600 1303.0986328125 17.32808494567871
			vertex 600 1256.19384765625 34.64678955078125
			vertex 600 1332.0479736328125 87.49179077148438
		endloop
	endfacet
	facet normal -1 0 0
		outer loop
			vertex 600 1303.0986328125 17.32808494567871
			vertex 600 1332.0479736328125 87.49179077148438
			vertex 600 1341.8826904296875 69.79022979736328
		endloop
	endfacet
	facet normal -1 0 0
		outer loop
			vertex 600 1303.09521484375 17.31870460510254
			vertex 600 1256.19384765625 34.64678955078125
			vertex 600 1303.0986328125 17.32808494567871
		endloop
	endfacet
	facet normal -1 0 0
		outer loop
			vertex 600 1303.09521484375 17.31870460510254
			vertex 600 1256.1903076171875 34.63740921020508
			vertex 600 1256.19384765625 34.64678955078125
		endloop
	endfacet
	facet normal -1 0 0
		outer loop
			vertex 600 1347.94970703125 50.47029113769531
			vertex 600 1303.0986328125 17.32808494567871
			vertex 600 1341.8826904296875 69.79022979736328
		endloop
	endfacet
	facet normal -1 0 0
		outer loop
			vertex 600 1350 30.32423210144043
			vertex 600 1303.0986328125 17.32808494567871
			vertex 600 1347.94970703125 50.47029113769531
		endloop
	endfacet
	facet normal -1 0 0
		outer loop
			vertex 600 1350 0.010659884661436081
			vertex 600 1303.0986328125 17.32808494567871
			vertex 600 1350 30.32423210144043
		endloop
	endfacet
	facet normal 0 -1 0
		outer loop
			vertex 600 -650 0.010659884661436081
			vertex 617 -650 30.32423210144043
			vertex 600 -650 30.32423210144043
		endloop
	endfacet
	facet normal 0 -1 0
		outer loop
			vertex 617 -650 -7.105427357601002e-14
			vertex 600 -650 0.010659884661436081
			vertex 600 -650 -7.96020421887228e-14
		endloop
	endfacet
	facet normal 0 -1 0
		outer loop
			vertex 617 -650 -7.105427357601002e-14
			vertex 617 -650 30.32423210144043
			vertex 600 -650 0.010659884661436081
		endloop
	endfacet
	facet normal 1 0 0
		outer loop
			vertex 617 -584.6373901367188 124.13388061523438
			vertex 617 -618.8486938476562 102.8490982055664
			vertex 617 -632.0479736328125 87.49179077148438
		endloop
	endfacet
	facet normal 1 0 0
		outer loop
			vertex 617 -584.6373901367188 124.13388061523438
			vertex 617 -602.826171875 115.23239135742188
			vertex 617 -618.8486938476562 102.8490982055664
		endloop
	endfacet
	facet normal 1 0 0
		outer loop
			vertex 617 -647.9496459960938 50.47029113769531
			vertex 617 -632.0479736328125 87.49179077148438
			vertex 617 -641.8827514648438 69.79022979736328
		endloop
	endfacet
	facet normal 1 0 0
		outer loop
			vertex 617 -647.9496459960938 50.47029113769531
			vertex 617 -584.6373901367188 124.13388061523438
			vertex 617 -632.0479736328125 87.49179077148438
		endloop
	endfacet
	facet normal 1 0 0
		outer loop
			vertex 617 -650 30.32423210144043
			vertex 617 -584.6373901367188 124.13388061523438
			vertex 617 -647.9496459960938 50.47029113769531
		endloop
	endfacet
	facet normal 1 0 0
		outer loop
			vertex 617 -650 -7.105427357601002e-14
			vertex 617 -584.6373901367188 124.13388061523438
			vertex 617 -650 30.32423210144043
		endloop
	endfacet
	facet normal 1 0 0
		outer loop
			vertex 617 -4.218847493575595e-14 0
			vertex 617 -1.3693173927641772e-13 340
			vertex 617 -584.6373901367188 124.13388061523438
		endloop
	endfacet
	facet normal 1 0 0
		outer loop
			vertex 617 -4.218847493575595e-14 0
			vertex 617 -584.6373901367188 124.13388061523438
			vertex 617 -650 -7.105427357601002e-14
		endloop
	endfacet
	facet normal 0 0.3463743079384859 0.9380963909962212
		outer loop
			vertex -3.556124036734054e-13 1115.475830078125 86.59352111816406
			vertex -3.340330399434488e-13 1068.571044921875 103.91222381591797
			vertex 600 1068.571044921875 103.91222381591797
		endloop
	endfacet
	facet normal 0 0.3463743079384859 0.9380963909962212
		outer loop
			vertex -3.556124036734054e-13 1115.475830078125 86.59352111816406
			vertex 600 1068.571044921875 103.91222381591797
			vertex 600 1115.475830078125 86.59352111816406
		endloop
	endfacet
	facet normal 0 -0.3463742438965601 0.9380964146424856
		outer loop
			vertex 9.010602322872402e-14 -274.76141357421875 138.5496368408203
			vertex 1.4210854715202004e-13 -321.6662292480469 121.23092651367188
			vertex 600 -321.6662292480469 121.23092651367188
		endloop
	endfacet
	facet normal 0 -0.3463742438965601 0.9380964146424856
		outer loop
			vertex 9.010602322872402e-14 -274.76141357421875 138.5496368408203
			vertex 600 -321.6662292480469 121.23092651367188
			vertex 600 -274.76141357421875 138.5496368408203
		endloop
	endfacet
	facet normal 0 0 1
		outer loop
			vertex 600 17 240
			vertex 0 0 240
			vertex 600 -9.860761315262648e-30 240
		endloop
	endfacet
	facet normal 0 0 1
		outer loop
			vertex 600 683 240
			vertex -2.1316282072803006e-13 700 240
			vertex 0 0 240
		endloop
	endfacet
	facet normal 0 0 1
		outer loop
			vertex 600 683 240
			vertex 0 0 240
			vertex 600 17 240
		endloop
	endfacet
	facet normal 0 0 1
		outer loop
			vertex 600 700 240
			vertex -2.1316282072803006e-13 700 240
			vertex 600 683 240
		endloop
	endfacet
	facet normal 0 0 1
		outer loop
			vertex 753 683 240
			vertex 600 17 240
			vertex 753 17 240
		endloop
	endfacet
	facet normal 0 0 1
		outer loop
			vertex 753 683 240
			vertex 600 683 240
			vertex 600 17 240
		endloop
	endfacet
	facet normal 5.028099183948694e-16 1.0931426704001541e-16 -1
		outer loop
			vertex 617 -4.218847493575595e-14 0
			vertex 617 -650 -7.105427357601002e-14
			vertex 600 -650 -7.96020421887228e-14
		endloop
	endfacet
	facet normal -5.028099183948632e-16 5.997473259051589e-16 -1
		outer loop
			vertex 617 -4.218847493575595e-14 0
			vertex 2.1316282072803006e-13 -650 -7.96020421887228e-14
			vertex -17 -650 -7.105427357601002e-14
		endloop
	endfacet
	facet normal 0 1.2246468029034276e-16 -1
		outer loop
			vertex 617 -4.218847493575595e-14 0
			vertex 600 -650 -7.96020421887228e-14
			vertex 2.1316282072803006e-13 -650 -7.96020421887228e-14
		endloop
	endfacet
	facet normal 7.564926603124095e-17 3.552713678800501e-17 -1
		outer loop
			vertex -17 1350 0
			vertex 617 -4.218847493575595e-14 0
			vertex -17 -650 -7.105427357601002e-14
		endloop
	endfacet
	facet normal 0 0 -1
		outer loop
			vertex -17 1350 0
			vertex 617 700 0
			vertex 617 -4.218847493575595e-14 0
		endloop
	endfacet
	facet normal 0 0 -1
		outer loop
			vertex -4.263256414560601e-13 1350 0
			vertex 617 700 0
			vertex -17 1350 0
		endloop
	endfacet
	facet normal 0 0 -1
		outer loop
			vertex 770 700 0
			vertex 770 -8.881784197001252e-15 0
			vertex 617 -4.218847493575595e-14 0
		endloop
	endfacet
	facet normal 0 0 -1
		outer loop
			vertex 770 700 0
			vertex 617 -4.218847493575595e-14 0
			vertex 617 700 0
		endloop
	endfacet
	facet normal 0 0 -1
		outer loop
			vertex 600 1350 0
			vertex 617 700 0
			vertex -4.263256414560601e-13 1350 0
		endloop
	endfacet
	facet normal 0 0 -1
		outer loop
			vertex 617 1350 0
			vertex 617 700 0
			vertex 600 1350 0
		endloop
	endfacet
endsolid exported
